{"glyphs":{"0":{"ha":791,"x_min":60,"x_max":731,"o":"m 60 509 q 395 1017 60 1017 q 731 509 731 1017 q 395 0 731 0 q 60 509 60 0 m 629 509 q 395 916 629 916 q 161 509 161 916 q 395 102 161 102 q 629 509 629 102 z "},"1":{"ha":646,"x_min":153,"x_max":533,"o":"m 292 795 l 153 795 l 153 859 q 317 1017 297 859 l 394 1017 l 394 102 l 533 102 l 533 0 l 153 0 l 153 102 l 292 102 l 292 795 z "},"2":{"ha":766,"x_min":74,"x_max":705,"o":"m 412 489 q 603 714 603 572 q 389 916 603 916 q 176 714 176 916 l 74 714 q 389 1017 74 1017 q 705 714 705 1017 q 446 391 705 503 l 316 335 q 176 102 176 277 l 705 102 l 705 0 l 74 0 l 74 102 q 282 433 74 345 l 412 489 z "},"3":{"ha":775,"x_min":66,"x_max":696,"o":"m 381 584 q 574 750 574 584 q 381 916 574 916 q 188 750 188 916 l 86 750 q 381 1017 86 1017 q 676 751 676 1017 q 584 536 676 602 q 696 292 696 467 q 381 0 696 0 q 66 294 66 0 l 168 294 q 381 102 168 102 q 595 294 595 102 q 381 485 595 485 l 328 485 l 328 584 l 381 584 z "},"4":{"ha":740,"x_min":27,"x_max":705,"o":"m 473 835 l 150 352 l 473 352 l 473 835 m 473 1017 l 575 1017 l 575 352 l 705 352 l 705 250 l 575 250 l 575 0 l 473 0 l 473 250 l 27 250 l 27 352 l 473 1017 z "},"5":{"ha":777,"x_min":84,"x_max":705,"o":"m 705 339 q 408 0 705 0 q 84 269 118 0 l 186 269 q 408 102 220 102 q 603 339 603 102 q 415 576 603 576 q 220 490 278 576 l 121 490 l 169 1017 l 657 1017 l 657 916 l 260 916 l 235 644 q 415 678 308 678 q 705 339 705 678 z "},"6":{"ha":734,"x_min":58,"x_max":688,"o":"m 165 389 q 373 102 194 102 q 587 322 587 102 q 373 543 587 543 q 165 389 195 543 m 373 0 q 58 509 58 0 q 407 1017 58 1017 q 688 779 688 1017 l 587 779 q 407 916 587 916 q 162 586 184 916 q 373 644 239 644 q 688 322 688 644 q 373 0 688 0 z "},"7":{"ha":748,"x_min":67,"x_max":698,"o":"m 698 916 l 336 0 l 227 0 l 589 916 l 67 916 l 67 1017 l 698 1017 l 698 916 z "},"8":{"ha":731,"x_min":50,"x_max":681,"o":"m 366 916 q 172 746 172 916 q 366 576 172 576 q 559 746 559 576 q 366 916 559 916 m 366 475 q 152 288 152 475 q 366 102 152 102 q 579 288 579 102 q 366 475 579 475 m 161 529 q 71 746 71 595 q 366 1017 71 1017 q 661 746 661 1017 q 570 529 661 595 q 681 288 681 459 q 366 0 681 0 q 50 288 50 0 q 161 529 50 459 z "},"9":{"ha":734,"x_min":45,"x_max":676,"o":"m 569 629 q 361 916 540 916 q 147 695 147 916 q 361 475 147 475 q 569 629 539 475 m 361 1017 q 676 509 676 1017 q 327 0 676 0 q 45 239 45 0 l 147 239 q 327 102 147 102 q 572 431 549 102 q 361 373 495 373 q 45 695 45 373 q 361 1017 45 1017 z "}," ":{"ha":386,"x_min":0,"x_max":0,"o":""},"!":{"ha":591,"x_min":305,"x_max":422,"o":"m 415 1013 l 415 543 l 388 233 l 340 233 l 313 543 l 313 1013 l 415 1013 m 422 144 l 422 0 l 305 0 l 305 144 l 422 144 z "},"\"":{"ha":493,"x_min":72,"x_max":423,"o":"m 72 985 l 201 985 l 201 831 l 163 644 l 109 644 l 72 831 l 72 985 m 294 985 l 423 985 l 423 831 l 386 644 l 332 644 l 294 831 l 294 985 z "},"#":{"ha":772,"x_min":19,"x_max":752,"o":"m 673 968 l 623 696 l 752 696 l 752 602 l 605 602 l 562 359 l 708 359 l 708 265 l 545 265 l 491 -27 l 386 -27 l 438 265 l 267 265 l 212 -27 l 106 -27 l 159 265 l 19 265 l 19 359 l 177 359 l 220 602 l 71 602 l 71 696 l 239 696 l 288 968 l 394 968 l 344 696 l 517 696 l 566 968 l 673 968 m 500 602 l 328 602 l 283 359 l 456 359 l 500 602 z "},"$":{"ha":772,"x_min":47,"x_max":722,"o":"m 340 1069 l 422 1069 l 422 994 q 662 852 597 982 q 691 734 688 800 l 691 721 l 582 721 q 501 875 581 828 q 440 896 473 890 q 422 897 431 897 l 422 551 q 604 485 561 509 q 722 271 722 418 q 627 41 722 126 q 594 17 612 28 q 422 -32 526 -23 l 422 -175 l 340 -175 l 340 -32 q 66 144 126 -18 q 47 264 47 199 q 48 289 47 277 l 158 289 q 187 153 168 186 q 193 143 190 149 q 340 64 241 77 l 340 441 q 165 514 211 481 q 66 717 66 585 q 260 978 66 920 q 340 994 297 989 l 340 1069 m 340 562 l 340 896 q 183 772 207 878 q 179 730 179 753 q 340 562 179 606 m 422 429 l 422 64 q 549 115 507 74 q 608 254 608 171 q 543 380 608 339 q 422 429 503 406 z "},"%":{"ha":1234,"x_min":40,"x_max":1193,"o":"m 276 951 q 464 860 393 951 l 489 821 q 513 711 513 770 q 426 530 513 602 q 277 476 361 476 q 93 564 165 476 q 40 714 40 631 q 127 899 40 827 q 276 951 193 951 m 276 854 q 159 790 201 854 l 143 758 q 136 714 136 736 q 198 597 136 640 q 277 574 235 574 q 394 636 353 574 q 418 713 418 671 q 351 833 418 791 q 276 854 318 854 m 846 985 l 937 985 l 389 -27 l 297 -27 l 846 985 m 956 447 q 1144 355 1074 447 q 1193 208 1193 292 q 1105 28 1193 98 q 957 -26 1040 -26 q 772 61 844 -26 q 719 211 719 127 q 808 395 719 323 q 956 447 873 447 m 956 350 q 839 288 880 350 q 815 211 815 253 q 880 93 815 135 q 957 71 915 71 q 1074 134 1031 71 q 1097 208 1097 168 q 1030 329 1097 288 l 998 343 q 956 350 977 350 z "},"&":{"ha":926,"x_min":72,"x_max":884,"o":"m 684 464 l 795 464 q 715 210 795 334 l 884 0 l 733 0 l 647 109 q 540 18 579 41 q 357 -32 462 -32 q 118 82 195 -32 q 72 244 72 150 q 144 431 72 357 q 297 541 194 481 q 187 729 199 663 q 184 766 184 747 q 275 939 184 873 q 422 985 338 985 q 611 893 547 985 l 631 854 q 647 791 644 825 q 648 766 648 779 q 572 603 648 671 q 456 525 532 567 l 642 298 q 684 458 684 374 l 684 464 m 395 599 q 529 721 508 669 q 538 770 538 742 q 476 873 538 842 q 418 888 450 888 q 307 818 334 888 q 298 768 298 796 q 333 673 298 722 l 395 599 m 581 191 l 358 468 q 199 315 227 385 q 189 254 189 288 q 264 111 189 164 q 370 77 312 77 q 558 167 464 77 q 581 191 569 178 z "},"'":{"ha":265,"x_min":66,"x_max":197,"o":"m 66 985 l 197 985 l 197 831 l 159 644 l 104 644 l 66 831 l 66 985 z "},"(":{"ha":777,"x_min":170,"x_max":472,"o":"m 396 1013 l 472 1013 q 283 416 300 734 q 282 359 282 387 q 452 -259 282 36 q 472 -294 461 -277 l 396 -294 q 188 178 239 -89 q 170 359 170 272 q 298 857 170 608 q 396 1013 342 942 z "},")":{"ha":777,"x_min":305,"x_max":608,"o":"m 382 -294 l 305 -294 q 494 301 477 -16 q 496 358 496 330 q 326 978 496 682 q 305 1013 316 996 l 382 1013 q 590 541 538 807 q 608 358 608 446 q 479 -138 608 110 q 382 -294 436 -223 z "},"*":{"ha":896,"x_min":305,"x_max":726,"o":"m 472 1013 l 559 1013 l 553 857 l 700 909 l 726 828 l 576 786 l 673 663 l 602 612 l 516 742 l 429 612 l 359 663 l 455 786 l 305 828 l 332 909 l 479 857 l 472 1013 z "},"+":{"ha":811,"x_min":69,"x_max":741,"o":"m 741 371 l 741 273 l 454 273 l 454 -14 l 357 -14 l 357 273 l 69 273 l 69 371 l 357 371 l 357 659 l 454 659 l 454 371 l 741 371 z "},",":{"ha":386,"x_min":121,"x_max":267,"o":"m 121 144 l 267 144 l 267 -22 q 121 -204 267 -204 l 121 -151 q 195 -105 180 -149 q 204 -24 204 -79 l 204 0 l 121 0 l 121 144 z "},"-":{"ha":462,"x_min":64,"x_max":394,"o":"m 394 433 l 394 334 l 64 334 l 64 433 l 394 433 z "},".":{"ha":386,"x_min":121,"x_max":265,"o":"m 265 144 l 265 0 l 121 0 l 121 144 l 265 144 z "},"/":{"ha":386,"x_min":-11,"x_max":395,"o":"m 318 1013 l 395 1013 l 66 -27 l -11 -27 l 318 1013 z "},":":{"ha":386,"x_min":153,"x_max":297,"o":"m 297 144 l 297 0 l 153 0 l 153 144 l 297 144 m 297 728 l 297 583 l 153 583 l 153 728 l 297 728 z "},";":{"ha":386,"x_min":153,"x_max":298,"o":"m 298 728 l 298 583 l 154 583 l 154 728 l 298 728 m 153 144 l 298 144 l 298 -22 q 153 -204 298 -204 l 153 -151 q 227 -105 212 -149 q 236 -24 236 -79 l 236 0 l 153 0 l 153 144 z "},"<":{"ha":811,"x_min":62,"x_max":741,"o":"m 62 275 l 62 371 l 741 659 l 741 549 l 195 325 l 741 97 l 741 -12 l 62 275 z "},"=":{"ha":811,"x_min":69,"x_max":741,"o":"m 741 490 l 741 393 l 69 393 l 69 490 l 741 490 m 741 252 l 741 154 l 69 154 l 69 252 l 741 252 z "},">":{"ha":811,"x_min":69,"x_max":748,"o":"m 748 371 l 748 275 l 69 -12 l 69 97 l 616 321 l 69 549 l 69 659 l 748 371 z "},"?":{"ha":1075,"x_min":305,"x_max":905,"o":"m 656 277 l 532 277 l 532 353 q 570 473 532 422 q 643 550 594 504 q 676 579 652 558 q 780 762 779 671 q 695 901 780 860 l 652 916 q 602 921 629 921 q 447 840 488 921 q 423 704 423 793 l 305 704 q 368 931 305 850 q 555 1026 431 1012 q 610 1029 582 1029 q 862 914 785 1029 l 884 872 q 905 762 905 822 q 834 583 905 665 q 766 514 808 551 q 665 396 679 433 q 656 342 656 375 l 656 277 m 656 144 l 656 0 l 532 0 l 532 144 l 656 144 z "},"@":{"ha":1409,"x_min":47,"x_max":1320,"o":"m 923 696 l 1038 696 l 913 307 q 897 237 897 258 q 937 182 897 200 q 966 176 951 176 q 1128 277 1055 176 q 1200 496 1200 375 q 1065 786 1200 663 q 732 922 927 914 l 711 922 q 349 781 507 922 l 302 733 q 165 379 165 576 q 311 49 165 183 q 686 -90 460 -90 q 954 -45 795 -90 l 993 -138 q 679 -197 837 -197 q 247 -48 429 -197 q 51 294 77 90 q 47 358 47 326 q 179 753 47 572 q 267 850 218 807 q 626 1021 416 986 q 729 1029 677 1029 q 1130 889 960 1029 q 1316 571 1291 758 q 1320 513 1320 542 q 1201 203 1320 345 q 943 79 1095 79 q 790 186 809 79 q 593 86 699 86 q 414 182 479 86 q 366 340 366 250 q 476 608 366 492 q 723 725 583 724 q 892 604 840 725 l 923 696 m 715 636 q 554 538 623 636 q 491 339 491 450 q 557 199 491 245 q 629 175 590 175 q 770 265 709 175 q 838 449 817 332 q 846 503 844 479 l 846 512 q 789 616 846 581 q 715 636 755 636 z "},"ក":{"ha":949,"x_min":68,"x_max":882,"o":"m 136 610 q 475 746 203 746 q 814 610 746 746 l 814 0 l 624 0 l 624 583 q 475 665 583 665 q 326 583 366 665 l 326 0 l 136 0 l 136 610 m 193 698 q 103 738 138 705 q 68 818 68 771 q 227 1017 68 865 q 486 926 369 1017 q 653 1017 621 1017 q 779 956 711 1017 q 850 916 821 916 q 882 930 868 916 q 859 835 882 873 q 784 796 836 796 q 629 863 725 796 l 628 863 q 448 777 581 863 q 307 854 340 847 q 227 864 274 861 l 179 814 q 273 745 184 768 l 193 698 z "},"ខ":{"ha":949,"x_min":136,"x_max":814,"o":"m 326 695 l 326 644 q 363 678 363 644 q 326 695 363 695 m 814 203 q 475 0 814 0 q 136 203 136 0 l 136 412 q 624 685 624 515 l 624 814 q 475 936 624 936 q 326 814 326 936 l 326 763 q 406 742 381 763 q 431 678 431 720 q 317 576 431 576 q 136 644 136 576 l 136 814 q 475 1017 136 1017 q 814 814 814 1017 l 814 685 q 326 372 814 522 l 326 203 q 475 81 326 81 q 624 203 624 81 l 624 407 l 814 407 l 814 203 z "},"គ":{"ha":949,"x_min":68,"x_max":882,"o":"m 193 698 q 103 738 138 705 q 68 818 68 771 q 227 1017 68 865 q 486 926 369 1017 q 653 1017 621 1017 q 779 956 711 1017 q 850 916 821 916 q 882 930 868 916 q 859 835 882 873 q 784 796 836 796 q 629 863 725 796 l 628 863 q 448 777 581 863 q 307 854 340 847 q 227 864 274 861 l 179 814 q 273 745 184 768 l 193 698 m 326 222 q 449 339 353 339 q 543 224 543 339 q 490 170 543 170 q 452 192 452 170 q 422 214 452 214 q 326 48 376 214 l 326 0 l 136 0 l 136 610 q 475 746 203 746 q 814 610 746 746 l 814 0 l 624 0 l 624 583 q 475 665 583 665 q 326 583 366 665 l 326 222 z "},"ឃ":{"ha":1424,"x_min":14,"x_max":1356,"o":"m 136 916 q 81 814 81 902 q 136 746 81 746 l 136 916 m 1289 136 q 970 0 1221 0 q 712 64 798 0 q 454 0 626 0 q 136 136 203 0 l 136 678 q 14 814 14 678 q 58 960 14 902 q 156 1017 102 1017 q 326 949 326 1017 l 326 163 q 454 81 366 81 q 617 163 576 81 l 617 653 q 495 747 617 725 q 570 926 509 836 q 668 1017 631 1017 q 746 988 698 1017 l 793 959 q 843 946 814 946 q 875 949 858 946 q 847 855 868 902 q 792 804 827 808 q 785 804 789 804 q 694 840 751 804 q 661 850 676 850 q 608 785 618 850 q 807 658 807 746 l 807 163 q 970 81 848 81 q 1099 163 1058 81 l 1099 653 q 977 747 1099 725 q 1052 926 990 836 q 1149 1017 1113 1017 q 1227 988 1179 1017 l 1275 959 q 1324 946 1296 946 q 1356 949 1339 946 q 1329 855 1350 902 q 1274 804 1308 808 q 1267 804 1270 804 q 1175 840 1233 804 q 1143 850 1158 850 q 1089 785 1100 850 q 1289 658 1289 746 l 1289 136 z "},"ង":{"ha":949,"x_min":34,"x_max":814,"o":"m 658 895 q 624 936 658 936 q 576 895 576 936 q 633 835 576 872 q 658 895 658 863 m 136 516 q 102 481 102 516 q 136 441 102 441 l 136 516 m 624 176 l 624 610 q 612 689 624 670 q 575 725 600 709 q 414 678 472 678 q 196 725 252 678 q 136 854 136 776 q 153 944 136 899 q 170 1038 170 990 q 102 1085 170 1085 q 231 1153 102 1153 q 359 1038 359 1153 q 342 941 359 980 q 326 854 326 902 q 346 787 326 814 q 414 760 366 760 q 532 784 464 760 q 461 895 461 844 q 624 1017 461 1017 q 746 895 746 1017 q 700 795 746 843 q 729 780 714 787 q 814 610 814 734 l 814 68 q 746 0 814 0 q 633 52 684 0 l 475 210 l 300 32 q 203 0 265 0 q 136 68 136 0 l 136 373 q 34 481 34 373 q 180 610 34 610 q 326 543 326 610 l 326 176 l 418 268 q 475 297 446 297 q 533 268 504 297 l 624 176 z "},"ច":{"ha":949,"x_min":68,"x_max":882,"o":"m 624 584 q 576 549 576 584 q 624 509 576 509 l 624 584 m 326 724 l 326 163 q 475 81 366 81 q 624 163 583 81 l 624 441 q 509 549 509 441 q 661 678 509 678 q 814 610 814 678 l 814 136 q 475 0 746 0 q 136 136 203 0 l 136 715 q 103 739 117 724 q 68 818 68 771 q 227 1017 68 865 q 486 926 369 1017 q 653 1017 621 1017 q 779 956 711 1017 q 850 916 821 916 q 882 930 868 916 q 859 835 882 873 q 784 796 836 796 q 629 863 725 796 l 628 863 q 448 777 581 863 q 307 854 340 847 q 227 864 274 861 l 179 814 q 273 740 184 768 l 326 724 z "},"ឆ":{"ha":949,"x_min":34,"x_max":882,"o":"m 136 258 q 102 203 102 244 q 136 102 102 102 l 136 258 m 624 584 q 576 549 576 584 q 624 509 576 509 l 624 584 m 624 441 q 509 549 509 441 q 661 678 509 678 q 814 610 814 678 l 814 170 q 566 0 814 0 q 407 170 407 0 q 326 258 407 258 l 326 68 q 170 0 326 0 q 68 64 102 0 q 34 203 34 129 q 136 339 34 319 l 136 715 q 103 739 117 724 q 68 818 68 771 q 227 1017 68 865 q 486 926 369 1017 q 653 1017 621 1017 q 779 956 711 1017 q 850 916 821 916 q 882 930 868 916 q 859 835 882 873 q 784 796 836 796 q 629 863 725 796 l 628 863 q 448 777 581 863 q 307 854 340 847 q 227 864 274 861 l 179 814 q 273 740 184 768 l 326 724 l 326 339 q 509 170 509 339 q 566 81 509 81 q 624 170 624 81 l 624 441 z "},"ជ":{"ha":949,"x_min":68,"x_max":814,"o":"m 624 176 l 624 678 l 814 678 l 814 68 q 746 0 814 0 q 633 52 685 0 l 475 210 l 317 52 q 203 0 265 0 q 136 68 136 0 l 136 685 q 78 747 87 730 q 68 790 68 764 q 78 833 68 815 q 166 934 87 850 q 271 1017 245 1017 q 434 945 329 1017 q 637 848 572 848 q 699 902 699 848 q 675 966 699 936 q 604 997 651 997 q 515 1075 515 997 q 604 1153 515 1153 q 756 1099 699 1153 q 814 943 814 1044 q 759 805 814 846 q 617 764 705 764 q 357 804 443 764 q 244 844 272 844 q 199 829 216 844 q 182 792 182 814 q 326 706 182 769 l 326 176 l 418 268 q 475 297 446 297 q 533 268 504 297 l 624 176 z "},"ឈ":{"ha":1899,"x_min":136,"x_max":1831,"o":"m 326 136 q 373 271 373 136 q 326 339 373 339 l 326 136 m 610 854 q 468 936 570 936 q 326 854 366 936 l 326 407 q 441 271 441 407 q 398 68 441 136 q 246 0 356 0 q 136 68 136 0 l 136 882 q 468 1017 203 1017 q 800 882 732 1017 l 800 163 q 929 81 841 81 q 1092 163 1051 81 l 1092 653 q 970 747 1092 725 q 1045 926 983 836 q 1143 1017 1106 1017 q 1221 988 1173 1017 l 1268 959 q 1318 946 1289 946 q 1350 949 1333 946 q 1322 855 1343 902 q 1267 804 1301 808 q 1260 804 1263 804 q 1168 840 1226 804 q 1136 850 1151 850 q 1082 785 1093 850 q 1282 658 1282 746 l 1282 163 q 1444 81 1322 81 q 1573 163 1533 81 l 1573 653 q 1451 747 1573 725 q 1526 926 1465 836 q 1624 1017 1588 1017 q 1702 988 1654 1017 l 1750 959 q 1799 946 1771 946 q 1831 949 1814 946 q 1804 855 1824 902 q 1748 804 1783 808 q 1742 804 1745 804 q 1650 840 1708 804 q 1617 850 1632 850 q 1564 785 1575 850 q 1763 658 1763 746 l 1763 136 q 1444 0 1695 0 q 1187 64 1273 0 q 929 0 1101 0 q 610 136 678 0 l 610 854 z "},"ញ":{"ha":1424,"x_min":136,"x_max":1289,"o":"m 1021 -136 q 1041 -85 1021 -102 q 1146 -68 1062 -68 q 1259 -102 1230 -68 q 1289 -203 1289 -136 q 1217 -332 1289 -278 q 994 -387 1145 -387 q 795 -361 868 -387 q 572 -242 723 -336 q 375 -149 420 -149 q 267 -168 313 -149 q 170 -231 220 -186 q 195 -158 170 -190 q 277 -97 220 -125 q 409 -68 334 -68 q 593 -100 517 -68 q 760 -197 670 -132 q 1007 -316 931 -316 q 1077 -294 1055 -316 q 1099 -203 1099 -271 l 1099 -185 q 1070 -187 1082 -187 q 1047 -183 1054 -187 q 1027 -163 1034 -176 q 1021 -136 1021 -150 m 326 102 q 373 271 373 102 q 326 339 373 339 l 326 102 m 759 939 q 956 1017 833 1017 q 1289 733 1289 1017 l 1289 0 l 1099 0 l 1099 733 q 956 936 1099 936 q 814 733 814 936 l 814 0 l 624 0 l 624 814 q 590 884 624 884 q 475 814 556 884 q 360 884 394 884 q 326 814 326 884 l 326 407 q 441 271 441 407 q 398 68 441 136 q 305 0 356 0 q 136 68 136 0 l 136 814 q 210 957 136 897 q 325 1017 285 1017 q 475 926 359 1017 q 625 1017 591 1017 q 739 957 665 1017 l 759 939 z "},"ដ":{"ha":949,"x_min":136,"x_max":814,"o":"m 363 828 q 404 825 382 826 q 465 823 433 823 q 586 852 548 823 q 624 947 624 882 q 563 997 624 997 q 495 1075 495 997 q 563 1153 495 1153 q 814 947 814 1153 q 728 803 814 860 q 396 746 642 746 q 201 780 266 746 q 136 888 136 814 q 171 981 136 945 q 268 1017 207 1017 q 364 988 330 1017 q 399 908 399 959 q 363 828 399 857 m 624 176 l 624 678 l 814 678 l 814 68 q 746 0 814 0 q 633 52 685 0 l 475 210 l 317 52 q 203 0 265 0 q 136 68 136 0 l 136 678 l 326 678 l 326 176 l 418 268 q 475 297 446 297 q 533 268 504 297 l 624 176 z "},"ឋ":{"ha":949,"x_min":14,"x_max":882,"o":"m 136 902 q 81 814 81 902 q 136 746 81 746 l 136 902 m 136 678 q 14 814 14 678 q 58 960 14 902 q 214 1017 102 1017 q 326 949 326 1017 l 326 163 q 475 81 366 81 q 624 163 583 81 l 624 653 q 522 747 624 725 q 587 926 536 836 q 675 1017 638 1017 q 753 988 705 1017 l 793 964 q 814 1017 814 987 q 753 1099 814 1099 q 678 1160 678 1099 q 753 1221 678 1221 q 882 1017 882 1221 q 856 873 882 939 q 799 804 831 808 q 792 804 795 804 q 701 840 758 804 q 668 850 683 850 q 621 806 625 850 q 814 651 814 746 l 814 136 q 475 0 746 0 q 136 136 203 0 l 136 678 z "},"ឌ":{"ha":949,"x_min":136,"x_max":814,"o":"m 326 695 l 326 658 q 363 678 363 658 q 326 695 363 695 m 326 763 q 406 742 381 763 q 431 678 431 720 q 283 576 431 576 q 136 644 136 576 l 136 814 q 210 957 136 897 q 325 1017 285 1017 q 475 926 359 1017 q 625 1017 591 1017 q 739 957 665 1017 q 814 814 814 897 l 814 712 q 326 378 814 495 l 326 203 q 400 81 326 81 q 624 223 515 81 l 624 407 l 814 407 l 814 0 q 610 -115 814 -115 q 543 -47 543 -115 q 624 0 624 -47 l 624 96 q 400 0 542 0 q 136 203 136 0 l 136 432 q 624 712 624 481 l 624 814 q 590 884 624 884 q 475 814 556 884 q 360 884 394 884 q 326 814 326 884 l 326 763 z "},"ឍ":{"ha":1438,"x_min":136,"x_max":1370,"o":"m 326 102 q 373 271 373 102 q 326 339 373 339 l 326 102 m 624 258 q 590 203 590 244 q 624 102 590 102 l 624 258 m 624 814 q 590 884 624 884 q 475 814 556 884 q 360 884 394 884 q 326 814 326 884 l 326 407 q 441 271 441 407 q 398 68 441 136 q 305 0 356 0 q 136 68 136 0 l 136 814 q 210 957 136 897 q 325 1017 285 1017 q 475 926 359 1017 q 625 1017 591 1017 q 739 957 665 1017 q 814 814 814 897 l 814 339 q 997 170 997 339 q 1055 81 997 81 q 1112 170 1112 81 l 1112 653 q 990 747 1112 725 q 1065 926 1004 836 q 1163 1017 1126 1017 q 1241 988 1193 1017 l 1289 959 q 1338 946 1310 946 q 1370 949 1353 946 q 1342 855 1363 902 q 1287 804 1322 808 q 1280 804 1284 804 q 1189 840 1246 804 q 1156 850 1171 850 q 1103 785 1114 850 q 1302 658 1302 746 l 1302 170 q 1055 0 1302 0 q 895 170 895 0 q 814 258 895 258 l 814 68 q 658 0 814 0 q 556 64 590 0 q 522 203 522 129 q 624 339 522 319 l 624 814 z "},"ណ":{"ha":1899,"x_min":136,"x_max":1763,"o":"m 326 102 q 373 271 373 102 q 326 339 373 339 l 326 102 m 1099 149 l 1099 882 q 1431 1017 1166 1017 q 1763 882 1695 1017 l 1763 0 l 1573 0 l 1573 854 q 1431 936 1533 936 q 1289 854 1329 936 l 1289 68 q 1194 0 1289 0 q 1080 52 1133 0 l 949 183 l 819 52 q 705 0 767 0 q 610 68 610 0 l 610 854 q 468 936 570 936 q 326 854 366 936 l 326 407 q 441 271 441 407 q 398 68 441 136 q 246 0 356 0 q 136 68 136 0 l 136 882 q 468 1017 203 1017 q 800 882 732 1017 l 800 149 l 922 271 q 949 285 936 285 q 977 271 963 285 l 1099 149 z "},"ត":{"ha":949,"x_min":68,"x_max":882,"o":"m 326 122 q 359 203 359 122 q 326 271 359 271 l 326 122 m 103 738 q 85 755 103 738 q 68 818 68 771 q 227 1017 68 865 q 486 926 369 1017 q 653 1017 621 1017 q 779 956 711 1017 q 850 916 821 916 q 882 930 868 916 q 859 835 882 873 q 784 796 836 796 q 629 863 725 796 l 628 863 q 448 777 581 863 q 307 854 340 847 q 227 864 274 861 l 179 814 q 273 745 184 768 l 193 698 q 103 738 138 705 m 326 339 q 427 203 427 339 q 392 68 427 136 q 246 0 356 0 q 136 68 136 0 l 136 610 q 475 746 203 746 q 814 610 746 746 l 814 0 l 624 0 l 624 583 q 475 665 583 665 q 326 583 366 665 l 326 339 z "},"ថ":{"ha":949,"x_min":68,"x_max":814,"o":"m 624 584 q 576 549 576 584 q 624 509 576 509 l 624 584 m 326 163 q 475 81 366 81 q 624 163 583 81 l 624 441 q 509 549 509 441 q 661 678 509 678 q 814 610 814 678 l 814 136 q 475 0 746 0 q 136 136 203 0 l 136 685 q 78 747 87 730 q 68 790 68 764 q 78 833 68 815 q 166 934 87 850 q 271 1017 245 1017 q 434 945 329 1017 q 637 848 572 848 q 699 902 699 848 q 675 966 699 936 q 604 997 651 997 q 515 1075 515 997 q 604 1153 515 1153 q 756 1099 699 1153 q 814 943 814 1044 q 759 805 814 846 q 617 764 705 764 q 357 804 443 764 q 244 844 272 844 q 199 829 216 844 q 182 792 182 814 q 326 706 182 769 l 326 163 z "},"ទ":{"ha":949,"x_min":136,"x_max":814,"o":"m 586 732 q 624 719 586 719 l 624 749 q 586 732 586 749 m 746 205 q 475 0 746 0 q 203 170 203 0 l 203 339 l 393 339 l 393 170 q 475 81 393 81 q 556 204 556 81 l 556 393 l 475 393 q 136 597 136 393 l 136 814 q 475 1017 136 1017 q 814 814 814 1017 l 814 712 q 666 644 814 644 q 518 732 518 644 q 543 796 518 774 q 624 817 568 817 q 475 936 624 936 q 326 814 326 936 l 326 597 q 475 475 326 475 l 556 475 q 685 576 556 576 q 814 492 814 576 q 746 393 814 393 l 746 205 z "},"ធ":{"ha":949,"x_min":68,"x_max":882,"o":"m 624 584 q 576 549 576 584 q 624 509 576 509 l 624 584 m 624 441 q 509 549 509 441 q 661 678 509 678 q 814 610 814 678 l 814 68 q 746 0 814 0 q 633 52 685 0 l 475 210 l 317 52 q 203 0 265 0 q 136 68 136 0 l 136 715 q 103 739 117 724 q 68 818 68 771 q 227 1017 68 865 q 486 926 369 1017 q 653 1017 621 1017 q 779 956 711 1017 q 850 916 821 916 q 882 930 868 916 q 859 835 882 873 q 784 796 836 796 q 629 863 725 796 l 628 863 q 448 777 581 863 q 307 854 340 847 q 227 864 274 861 l 179 814 q 273 740 184 768 l 326 724 l 326 176 l 418 268 q 475 297 446 297 q 533 268 504 297 l 624 176 l 624 441 z "},"ន":{"ha":949,"x_min":136,"x_max":814,"o":"m 586 678 q 624 658 586 658 l 624 695 q 586 678 586 695 m 814 170 q 580 0 814 0 q 420 95 450 0 q 326 190 391 190 l 326 0 l 136 0 l 136 407 l 326 407 l 326 271 q 488 186 458 271 q 580 102 518 102 q 624 170 624 102 l 624 392 l 380 454 q 136 712 136 515 l 136 814 q 475 1017 136 1017 q 814 814 814 1017 l 814 644 q 666 576 814 576 q 518 678 518 576 q 543 742 518 720 q 624 763 568 763 l 624 814 q 475 936 624 936 q 326 814 326 936 l 326 712 q 570 491 326 549 l 814 432 l 814 170 z "},"ប":{"ha":949,"x_min":14,"x_max":882,"o":"m 136 653 q 14 747 136 725 q 89 926 27 836 q 186 1017 150 1017 q 264 988 216 1017 l 312 959 q 361 946 333 946 q 393 949 376 946 q 366 855 387 902 q 311 804 345 808 q 304 804 307 804 q 212 840 270 804 q 180 850 195 850 q 126 785 137 850 q 326 658 326 746 l 326 163 q 475 81 366 81 q 624 163 583 81 l 624 653 q 502 747 624 725 q 577 926 515 836 q 675 1017 638 1017 q 753 988 705 1017 l 800 959 q 850 946 821 946 q 882 949 865 946 q 854 855 875 902 q 799 804 833 808 q 792 804 795 804 q 701 840 758 804 q 668 850 683 850 q 614 785 625 850 q 814 658 814 746 l 814 136 q 475 0 746 0 q 136 136 203 0 l 136 653 z "},"ផ":{"ha":949,"x_min":68,"x_max":814,"o":"m 624 584 q 576 549 576 584 q 624 509 576 509 l 624 584 m 814 68 q 746 0 814 0 q 633 52 685 0 l 475 210 l 317 52 q 203 0 265 0 q 136 68 136 0 l 136 685 q 78 747 87 730 q 68 790 68 764 q 78 833 68 815 q 166 934 87 850 q 271 1017 245 1017 q 434 945 329 1017 q 637 848 572 848 q 699 902 699 848 q 675 966 699 936 q 604 997 651 997 q 515 1075 515 997 q 604 1153 515 1153 q 756 1099 699 1153 q 814 943 814 1044 q 759 805 814 846 q 617 764 705 764 q 357 804 443 764 q 244 844 272 844 q 199 829 216 844 q 182 792 182 814 q 326 706 182 769 l 326 176 l 418 268 q 475 297 446 297 q 533 268 504 297 l 624 176 l 624 441 q 509 549 509 441 q 661 678 509 678 q 814 610 814 678 l 814 68 z "},"ព":{"ha":949,"x_min":136,"x_max":814,"o":"m 326 102 q 373 271 373 102 q 326 339 373 339 l 326 102 m 136 814 q 210 957 136 897 q 325 1017 285 1017 q 475 926 359 1017 q 625 1017 591 1017 q 739 957 665 1017 q 814 814 814 897 l 814 0 l 624 0 l 624 814 q 590 884 624 884 q 475 814 556 884 q 360 884 394 884 q 326 814 326 884 l 326 407 q 441 271 441 407 q 398 68 441 136 q 305 0 356 0 q 136 68 136 0 l 136 814 z "},"ភ":{"ha":949,"x_min":14,"x_max":882,"o":"m 136 271 q 81 203 81 271 q 136 122 81 122 l 136 271 m 103 738 q 85 755 103 738 q 68 818 68 771 q 227 1017 68 865 q 486 926 369 1017 q 653 1017 621 1017 q 779 956 711 1017 q 850 916 821 916 q 882 930 868 916 q 859 835 882 873 q 784 796 836 796 q 629 863 725 796 l 628 863 q 448 777 581 863 q 307 854 340 847 q 227 864 274 861 l 179 814 q 273 745 184 768 l 193 698 q 103 738 138 705 m 326 68 q 205 0 326 0 q 49 68 85 0 q 14 203 14 136 q 136 339 14 339 l 136 610 q 475 746 203 746 q 814 610 746 746 l 814 0 l 624 0 l 624 583 q 475 665 583 665 q 326 583 366 665 l 326 68 z "},"ម":{"ha":949,"x_min":14,"x_max":882,"o":"m 624 529 l 624 653 q 502 747 624 725 q 577 926 515 836 q 675 1017 638 1017 q 753 988 705 1017 l 800 959 q 850 946 821 946 q 882 949 865 946 q 854 855 875 902 q 799 804 833 808 q 792 804 795 804 q 701 840 758 804 q 668 850 683 850 q 614 785 625 850 q 814 658 814 746 l 814 136 q 475 0 746 0 q 136 136 203 0 l 136 653 q 14 747 136 725 q 89 926 27 836 q 186 1017 150 1017 q 264 988 216 1017 l 312 959 q 361 946 333 946 q 393 949 376 946 q 366 855 387 902 q 311 804 345 808 q 304 804 307 804 q 212 840 270 804 q 180 850 195 850 q 126 785 137 850 q 326 658 326 746 l 326 529 l 624 529 m 624 448 l 326 448 l 326 163 q 475 81 366 81 q 624 163 583 81 l 624 448 z "},"យ":{"ha":1424,"x_min":136,"x_max":1356,"o":"m 298 814 q 322 746 298 746 q 346 807 346 746 q 322 875 346 868 q 318 876 320 876 q 298 814 298 876 m 136 949 q 231 1017 136 1017 q 370 960 326 1017 q 414 814 414 902 q 326 678 414 678 l 326 163 q 454 81 366 81 q 617 163 576 81 l 617 653 q 495 747 617 725 q 570 926 509 836 q 668 1017 631 1017 q 746 988 698 1017 l 793 959 q 843 946 814 946 q 875 949 858 946 q 847 855 868 902 q 792 804 827 808 q 785 804 789 804 q 694 840 751 804 q 661 850 676 850 q 608 785 618 850 q 807 658 807 746 l 807 163 q 970 81 848 81 q 1099 163 1058 81 l 1099 653 q 977 747 1099 725 q 1052 926 990 836 q 1149 1017 1113 1017 q 1227 988 1179 1017 l 1275 959 q 1324 946 1296 946 q 1356 949 1339 946 q 1329 855 1350 902 q 1274 804 1308 808 q 1267 804 1270 804 q 1175 840 1233 804 q 1143 850 1158 850 q 1089 785 1100 850 q 1289 658 1289 746 l 1289 136 q 970 0 1221 0 q 712 64 798 0 q 454 0 626 0 q 136 136 203 0 l 136 949 z "},"រ":{"ha":461,"x_min":14,"x_max":393,"o":"m 136 271 q 81 203 81 271 q 136 115 81 115 l 136 271 m 326 68 q 205 0 326 0 q 49 68 85 0 q 14 203 14 136 q 136 339 14 339 l 136 653 q 14 747 136 725 q 89 926 27 836 q 186 1017 150 1017 q 264 988 216 1017 l 312 959 q 361 946 333 946 q 393 949 376 946 q 366 855 387 902 q 311 804 345 808 q 304 804 307 804 q 212 840 270 804 q 180 850 195 850 q 126 785 137 850 q 326 658 326 746 l 326 68 z "},"ល":{"ha":1424,"x_min":136,"x_max":1356,"o":"m 326 102 q 373 271 373 102 q 326 339 373 339 l 326 102 m 1289 136 q 953 0 1221 0 q 617 136 685 0 l 617 854 q 471 936 576 936 q 326 854 366 936 l 326 407 q 441 271 441 407 q 415 68 441 136 q 305 0 390 0 q 136 68 136 0 l 136 882 q 471 1017 203 1017 q 807 882 739 1017 l 807 163 q 953 81 848 81 q 1099 163 1058 81 l 1099 653 q 977 747 1099 725 q 1052 926 990 836 q 1149 1017 1113 1017 q 1227 988 1179 1017 l 1275 959 q 1324 946 1296 946 q 1356 949 1339 946 q 1329 855 1350 902 q 1274 804 1308 808 q 1267 804 1270 804 q 1175 840 1233 804 q 1143 850 1158 850 q 1089 785 1100 850 q 1289 658 1289 746 l 1289 136 z "},"វ":{"ha":461,"x_min":14,"x_max":393,"o":"m 136 271 q 81 203 81 271 q 136 115 81 115 l 136 271 m 326 68 q 205 0 326 0 q 49 68 85 0 q 14 203 14 136 q 136 339 14 339 l 136 653 q 20 747 136 725 q 92 926 34 836 q 186 1017 150 1017 q 264 988 216 1017 q 305 972 292 972 q 315 976 311 972 q 326 1017 326 987 q 264 1099 326 1099 q 190 1160 190 1099 q 264 1221 190 1221 q 393 1017 393 1221 q 368 873 393 939 q 311 804 342 808 q 304 804 307 804 q 212 840 269 804 q 180 850 195 850 q 119 806 137 850 q 326 651 326 746 l 326 68 z "},"ឝ":{"ha":949,"x_min":68,"x_max":916,"o":"m 193 698 q 103 738 138 705 q 68 818 68 771 q 227 1017 68 865 q 486 926 369 1017 q 653 1017 621 1017 q 779 956 711 1017 q 850 916 821 916 q 882 930 868 916 q 859 835 882 873 q 784 796 836 796 q 629 863 725 796 l 628 863 q 448 777 581 863 q 307 854 340 847 q 227 864 274 861 l 179 814 q 273 745 184 768 l 193 698 m 814 346 l 916 346 l 916 264 l 814 264 l 814 0 l 624 0 l 624 264 l 553 264 l 553 346 l 624 346 l 624 583 q 475 665 583 665 q 326 583 366 665 l 326 222 q 449 339 353 339 q 543 224 543 339 q 490 170 543 170 q 452 192 452 170 q 422 214 452 214 q 326 48 376 214 l 326 0 l 136 0 l 136 610 q 475 746 203 746 q 814 610 746 746 l 814 346 z "},"ឞ":{"ha":949,"x_min":14,"x_max":916,"o":"m 814 549 l 916 549 l 916 468 l 814 468 l 814 136 q 475 0 746 0 q 136 136 203 0 l 136 653 q 14 747 136 725 q 89 926 27 836 q 186 1017 150 1017 q 264 988 216 1017 l 312 959 q 361 946 333 946 q 393 949 376 946 q 366 855 387 902 q 311 804 345 808 q 304 804 307 804 q 212 840 270 804 q 180 850 195 850 q 126 785 137 850 q 326 658 326 746 l 326 163 q 475 81 366 81 q 624 163 583 81 l 624 468 l 543 468 l 543 549 l 624 549 l 624 653 q 502 747 624 725 q 577 926 515 836 q 675 1017 638 1017 q 753 988 705 1017 l 800 959 q 850 946 821 946 q 882 949 865 946 q 854 855 875 902 q 799 804 833 808 q 792 804 795 804 q 701 840 758 804 q 668 850 683 850 q 614 785 625 850 q 814 658 814 746 l 814 549 z "},"ស":{"ha":1424,"x_min":136,"x_max":1356,"o":"m 326 102 q 359 203 359 102 q 326 271 359 271 l 326 102 m 1289 136 q 953 0 1221 0 q 617 136 685 0 l 617 583 q 471 665 576 665 q 326 583 366 665 l 326 339 q 427 203 427 339 q 392 68 427 136 q 305 0 356 0 q 136 68 136 0 l 136 610 q 291 727 178 695 q 170 781 245 752 q 255 933 190 849 q 370 1017 319 1017 q 494 979 413 1017 q 602 947 557 947 q 624 949 614 947 q 596 855 617 902 q 541 804 576 808 q 534 804 538 804 q 412 840 498 804 q 359 850 385 850 q 282 806 298 850 q 420 745 366 784 q 454 746 437 746 q 807 610 739 746 l 807 163 q 953 81 848 81 q 1099 163 1058 81 l 1099 653 q 977 747 1099 725 q 1052 926 990 836 q 1149 1017 1113 1017 q 1227 988 1179 1017 l 1275 959 q 1324 946 1296 946 q 1356 949 1339 946 q 1329 855 1350 902 q 1274 804 1308 808 q 1267 804 1270 804 q 1175 840 1233 804 q 1143 850 1158 850 q 1089 785 1100 850 q 1289 658 1289 746 l 1289 136 z "},"ហ":{"ha":1424,"x_min":14,"x_max":1289,"o":"m 326 163 q 471 81 366 81 q 617 163 576 81 l 617 882 q 953 1017 685 1017 q 1289 882 1221 1017 l 1289 0 l 1099 0 l 1099 854 q 953 936 1058 936 q 807 854 848 936 l 807 136 q 471 0 739 0 q 136 136 203 0 l 136 653 q 14 747 136 725 q 89 926 27 836 q 186 1017 150 1017 q 264 988 216 1017 l 312 959 q 361 946 333 946 q 393 949 376 946 q 366 855 387 902 q 311 804 345 808 q 304 804 307 804 q 212 840 270 804 q 180 850 195 850 q 126 785 137 850 q 326 658 326 746 l 326 163 z "},"ឡ":{"ha":1424,"x_min":136,"x_max":1356,"o":"m 586 732 q 624 719 586 719 l 624 749 q 586 732 586 749 m 746 205 q 475 0 746 0 q 203 170 203 0 l 203 339 l 393 339 l 393 170 q 475 81 393 81 q 556 204 556 81 l 556 393 l 475 393 q 136 597 136 393 l 136 814 q 475 1017 136 1017 q 814 814 814 1017 l 814 712 q 666 644 814 644 q 518 732 518 644 q 543 796 518 774 q 624 817 568 817 q 475 936 624 936 q 326 814 326 936 l 326 597 q 475 475 326 475 l 556 475 q 685 576 556 576 q 814 492 814 576 q 746 393 814 393 l 746 205 m 922 -224 q 956 -207 939 -207 q 990 -224 973 -207 l 1099 -332 l 1099 653 q 977 747 1099 725 q 1052 926 990 836 q 1149 1017 1113 1017 q 1227 988 1179 1017 l 1275 959 q 1324 946 1296 946 q 1356 949 1339 946 q 1329 855 1350 902 q 1274 804 1308 808 q 1267 804 1270 804 q 1175 840 1233 804 q 1143 850 1158 850 q 1089 785 1100 850 q 1289 658 1289 746 l 1289 -373 q 1190 -441 1289 -441 q 1040 -389 1092 -441 l 956 -305 l 873 -389 q 740 -441 821 -441 q 658 -373 658 -441 l 658 -237 q 590 -190 590 -237 q 631 -110 590 -153 q 746 -68 671 -68 q 814 -136 814 -68 l 814 -333 l 922 -224 z "},"អ":{"ha":949,"x_min":14,"x_max":882,"o":"m 136 271 q 81 203 81 271 q 136 115 81 115 l 136 271 m 624 271 q 570 203 570 271 q 624 115 570 115 l 624 271 m 326 468 l 326 68 q 205 0 326 0 q 49 68 85 0 q 14 203 14 136 q 136 339 14 339 l 136 653 q 14 747 136 725 q 89 926 27 836 q 186 1017 150 1017 q 264 988 216 1017 l 312 959 q 361 946 333 946 q 393 949 376 946 q 366 855 387 902 q 311 804 345 808 q 304 804 307 804 q 212 840 270 804 q 180 850 195 850 q 126 785 137 850 q 326 658 326 746 l 326 549 l 624 549 l 624 653 q 502 747 624 725 q 577 926 515 836 q 675 1017 638 1017 q 753 988 705 1017 l 800 959 q 850 946 821 946 q 882 949 865 946 q 854 855 875 902 q 799 804 833 808 q 792 804 795 804 q 701 840 758 804 q 668 850 683 850 q 614 785 625 850 q 814 658 814 746 l 814 68 q 694 0 814 0 q 537 68 573 0 q 502 203 502 136 q 624 339 502 339 l 624 468 l 326 468 z "},"ឣ":{"ha":949,"x_min":14,"x_max":882,"o":"m 136 271 q 81 203 81 271 q 136 115 81 115 l 136 271 m 624 271 q 570 203 570 271 q 624 115 570 115 l 624 271 m 326 468 l 326 68 q 205 0 326 0 q 49 68 85 0 q 14 203 14 136 q 136 339 14 339 l 136 653 q 14 747 136 725 q 89 926 27 836 q 186 1017 150 1017 q 264 988 216 1017 l 312 959 q 361 946 333 946 q 393 949 376 946 q 366 855 387 902 q 311 804 345 808 q 304 804 307 804 q 212 840 270 804 q 180 850 195 850 q 126 785 137 850 q 326 658 326 746 l 326 549 l 624 549 l 624 653 q 502 747 624 725 q 577 926 515 836 q 675 1017 638 1017 q 753 988 705 1017 l 800 959 q 850 946 821 946 q 882 949 865 946 q 854 855 875 902 q 799 804 833 808 q 792 804 795 804 q 701 840 758 804 q 668 850 683 850 q 614 785 625 850 q 814 658 814 746 l 814 68 q 694 0 814 0 q 537 68 573 0 q 502 203 502 136 q 624 339 502 339 l 624 468 l 326 468 z "},"ឤ":{"ha":1424,"x_min":14,"x_max":1289,"o":"m 136 271 q 81 203 81 271 q 136 115 81 115 l 136 271 m 624 271 q 570 203 570 271 q 624 115 570 115 l 624 271 m 624 653 q 509 747 624 725 q 626 916 530 815 q 813 1017 722 1017 q 1093 938 897 1017 q 1289 712 1289 859 l 1289 0 l 1099 0 l 1099 712 q 974 815 1099 767 q 781 863 849 863 q 619 777 694 863 q 814 671 814 745 l 814 68 q 694 0 814 0 q 537 68 573 0 q 502 203 502 136 q 624 339 502 339 l 624 468 l 326 468 l 326 68 q 205 0 326 0 q 49 68 85 0 q 14 203 14 136 q 136 339 14 339 l 136 653 q 14 747 136 725 q 89 926 27 836 q 186 1017 150 1017 q 264 988 216 1017 l 312 959 q 361 946 333 946 q 393 949 376 946 q 366 855 387 902 q 311 804 345 808 q 304 804 307 804 q 212 840 270 804 q 180 850 195 850 q 126 785 137 850 q 326 658 326 746 l 326 549 l 624 549 l 624 653 z "},"ឥ":{"ha":949,"x_min":68,"x_max":814,"o":"m 326 122 q 359 203 359 122 q 326 271 359 271 l 326 122 m 326 339 q 427 203 427 339 q 392 68 427 136 q 246 0 356 0 q 136 68 136 0 l 136 610 q 475 746 203 746 q 814 610 746 746 l 814 0 l 624 0 l 624 583 q 475 665 583 665 q 326 583 366 665 l 326 339 m 159 688 q 78 747 85 733 q 68 790 68 764 q 78 833 68 815 q 166 934 87 850 q 271 1017 245 1017 q 434 945 329 1017 q 637 848 572 848 q 699 902 699 848 q 675 966 699 936 q 604 997 651 997 q 515 1075 515 997 q 604 1153 515 1153 q 756 1099 699 1153 q 814 943 814 1044 q 759 805 814 846 q 617 764 705 764 q 357 804 443 764 q 244 844 272 844 q 199 829 216 844 q 182 792 182 814 q 251 741 182 776 l 159 688 z "},"ឦ":{"ha":1424,"x_min":136,"x_max":1289,"o":"m 326 122 q 359 203 359 122 q 326 271 359 271 l 326 122 m 339 -351 q 373 -304 373 -321 q 339 -285 373 -285 l 339 -351 m 610 -192 q 475 -130 610 -130 q 339 -192 339 -130 l 339 -223 q 441 -304 441 -223 q 390 -394 441 -347 q 271 -441 339 -441 q 170 -350 170 -441 l 170 -192 q 475 -68 170 -68 q 780 -192 780 -68 l 780 -271 q 939 -359 780 -359 q 1099 -271 1099 -359 l 1099 1112 q 970 1309 1099 1309 q 854 1266 895 1309 q 784 1221 812 1223 l 778 1221 q 657 1241 685 1221 q 610 1371 610 1292 q 624 1460 610 1415 q 637 1554 637 1506 q 576 1601 637 1601 q 702 1669 576 1669 q 827 1554 827 1669 q 810 1457 827 1496 q 792 1371 792 1418 l 792 1341 q 970 1390 882 1390 q 1289 1112 1289 1390 l 1289 -271 q 939 -441 1289 -441 q 610 -271 610 -441 l 610 -192 m 326 339 q 427 203 427 339 q 392 68 427 136 q 246 0 356 0 q 136 68 136 0 l 136 882 q 475 1017 203 1017 q 814 882 746 1017 l 814 0 l 624 0 l 624 854 q 475 936 583 936 q 326 854 366 936 l 326 339 z "},"ឧ":{"ha":949,"x_min":136,"x_max":814,"o":"m 326 695 l 326 658 q 363 678 363 658 q 326 695 363 695 m 326 203 q 343 108 326 134 q 400 81 360 81 q 624 223 473 81 l 624 407 l 814 407 l 814 0 q 678 -115 814 -115 q 543 -47 543 -115 q 624 0 624 -47 l 624 96 q 400 0 499 0 q 203 43 260 0 q 136 203 136 93 l 136 398 q 624 712 624 515 l 624 814 q 475 936 624 936 q 326 814 326 936 l 326 763 q 406 742 381 763 q 431 678 431 720 q 283 576 431 576 q 136 644 136 576 l 136 814 q 475 1017 136 1017 q 814 814 814 1017 l 814 712 q 326 358 814 515 l 326 203 z "},"ឨ":{"ha":949,"x_min":68,"x_max":882,"o":"m 326 695 l 326 658 q 363 678 363 658 q 326 695 363 695 m 326 203 q 343 108 326 134 q 400 81 360 81 q 624 223 473 81 l 624 407 l 814 407 l 814 0 q 678 -115 814 -115 q 543 -47 543 -115 q 624 0 624 -47 l 624 96 q 400 0 499 0 q 203 43 260 0 q 136 203 136 93 l 136 398 q 624 712 624 515 l 624 814 q 475 936 624 936 q 326 814 326 936 l 326 763 q 406 742 381 763 q 431 678 431 720 q 283 576 431 576 q 136 644 136 576 l 136 814 q 475 1017 136 1017 q 814 814 814 1017 l 814 712 q 326 358 814 515 l 326 203 m 193 983 q 103 1023 138 990 q 68 1103 68 1056 q 227 1302 68 1149 q 486 1211 369 1302 q 653 1302 621 1302 q 779 1240 711 1302 q 850 1201 821 1201 q 882 1215 868 1201 q 859 1120 882 1158 q 784 1081 836 1081 q 629 1147 725 1081 l 628 1147 q 448 1061 581 1147 q 307 1139 340 1132 q 227 1149 274 1145 l 179 1099 q 273 1029 184 1053 l 193 983 z "},"ឩ":{"ha":1017,"x_min":136,"x_max":1017,"o":"m 895 407 l 1017 407 l 1017 -68 l 895 -68 l 895 407 m 326 695 l 326 658 q 363 678 363 658 q 326 695 363 695 m 326 203 q 343 108 326 134 q 400 81 360 81 q 624 223 473 81 l 624 407 l 814 407 l 814 0 q 678 -115 814 -115 q 543 -47 543 -115 q 624 0 624 -47 l 624 96 q 400 0 499 0 q 203 43 260 0 q 136 203 136 93 l 136 398 q 624 712 624 515 l 624 814 q 475 936 624 936 q 326 814 326 936 l 326 763 q 406 742 381 763 q 431 678 431 720 q 283 576 431 576 q 136 644 136 576 l 136 814 q 475 1017 136 1017 q 814 814 814 1017 l 814 712 q 326 358 814 515 l 326 203 z "},"ឪ":{"ha":949,"x_min":68,"x_max":814,"o":"m 326 695 l 326 658 q 363 678 363 658 q 326 695 363 695 m 326 203 q 343 108 326 134 q 400 81 360 81 q 624 223 473 81 l 624 407 l 814 407 l 814 0 q 678 -115 814 -115 q 543 -47 543 -115 q 624 0 624 -47 l 624 96 q 400 0 499 0 q 203 43 260 0 q 136 203 136 93 l 136 398 q 624 712 624 515 l 624 814 q 475 936 624 936 q 326 814 326 936 l 326 763 q 406 742 381 763 q 431 678 431 720 q 283 576 431 576 q 136 644 136 576 l 136 814 q 475 1017 136 1017 q 814 814 814 1017 l 814 712 q 326 358 814 515 l 326 203 m 159 987 q 78 1046 85 1031 q 68 1088 68 1063 q 78 1131 68 1114 q 166 1232 87 1149 q 271 1316 245 1316 q 434 1243 329 1316 q 637 1146 572 1146 q 699 1200 699 1146 q 675 1265 699 1234 q 604 1295 651 1295 q 515 1373 515 1295 q 604 1451 515 1451 q 756 1397 699 1451 q 814 1241 814 1343 q 759 1103 814 1145 q 617 1062 705 1062 q 357 1102 443 1062 q 244 1143 272 1143 q 199 1128 216 1143 q 182 1090 182 1113 q 251 1040 182 1074 l 159 987 z "},"ឫ":{"ha":949,"x_min":14,"x_max":882,"o":"m 814 -170 q 709 -322 814 -271 q 395 -373 604 -373 q 216 -351 290 -373 q 102 -251 143 -329 q 395 -271 228 -271 q 569 -237 511 -271 q 627 -170 627 -203 q 615 -144 627 -153 q 577 -136 602 -136 q 598 -85 577 -102 q 696 -68 619 -68 q 793 -94 772 -68 q 814 -170 814 -119 m 136 653 q 14 747 136 725 q 89 926 27 836 q 186 1017 150 1017 q 264 988 216 1017 l 312 959 q 361 946 333 946 q 393 949 376 946 q 366 855 387 902 q 311 804 345 808 q 304 804 307 804 q 212 840 270 804 q 180 850 195 850 q 126 785 137 850 q 326 658 326 746 l 326 163 q 475 81 366 81 q 624 163 583 81 l 624 653 q 502 747 624 725 q 577 926 515 836 q 675 1017 638 1017 q 753 988 705 1017 l 800 959 q 850 946 821 946 q 882 949 865 946 q 854 855 875 902 q 799 804 833 808 q 792 804 795 804 q 701 840 758 804 q 668 850 683 850 q 614 785 625 850 q 814 658 814 746 l 814 136 q 475 0 746 0 q 136 136 203 0 l 136 653 z "},"ឬ":{"ha":949,"x_min":14,"x_max":915,"o":"m 790 -254 q 828 -293 798 -279 q 915 -306 859 -306 q 888 -356 915 -339 q 805 -373 860 -373 q 736 -362 766 -373 q 690 -330 708 -351 q 395 -373 587 -373 q 216 -351 290 -373 q 102 -251 143 -329 q 395 -271 228 -271 q 569 -237 511 -271 q 627 -170 627 -203 q 615 -144 627 -153 q 577 -136 602 -136 q 598 -85 577 -102 q 696 -68 619 -68 q 793 -94 772 -68 q 814 -170 814 -119 q 790 -254 814 -218 m 136 653 q 14 747 136 725 q 89 926 27 836 q 186 1017 150 1017 q 264 988 216 1017 l 312 959 q 361 946 333 946 q 393 949 376 946 q 366 855 387 902 q 311 804 345 808 q 304 804 307 804 q 212 840 270 804 q 180 850 195 850 q 126 785 137 850 q 326 658 326 746 l 326 163 q 475 81 366 81 q 624 163 583 81 l 624 653 q 502 747 624 725 q 577 926 515 836 q 675 1017 638 1017 q 753 988 705 1017 l 800 959 q 850 946 821 946 q 882 949 865 946 q 854 855 875 902 q 799 804 833 808 q 792 804 795 804 q 701 840 758 804 q 668 850 683 850 q 614 785 625 850 q 814 658 814 746 l 814 136 q 475 0 746 0 q 136 136 203 0 l 136 653 z "},"ឭ":{"ha":949,"x_min":102,"x_max":814,"o":"m 326 102 q 373 271 373 102 q 326 339 373 339 l 326 102 m 136 814 q 210 957 136 897 q 325 1017 285 1017 q 475 926 359 1017 q 625 1017 591 1017 q 739 957 665 1017 q 814 814 814 897 l 814 0 l 624 0 l 624 814 q 590 884 624 884 q 475 814 556 884 q 360 884 394 884 q 326 814 326 884 l 326 407 q 441 271 441 407 q 398 68 441 136 q 305 0 356 0 q 136 68 136 0 l 136 814 m 814 -170 q 709 -322 814 -271 q 395 -373 604 -373 q 216 -351 290 -373 q 102 -251 143 -329 q 395 -271 228 -271 q 569 -237 511 -271 q 627 -170 627 -203 q 615 -144 627 -153 q 577 -136 602 -136 q 598 -85 577 -102 q 696 -68 619 -68 q 793 -94 772 -68 q 814 -170 814 -119 z "},"ឮ":{"ha":949,"x_min":102,"x_max":915,"o":"m 326 102 q 373 271 373 102 q 326 339 373 339 l 326 102 m 136 814 q 210 957 136 897 q 325 1017 285 1017 q 475 926 359 1017 q 625 1017 591 1017 q 739 957 665 1017 q 814 814 814 897 l 814 0 l 624 0 l 624 814 q 590 884 624 884 q 475 814 556 884 q 360 884 394 884 q 326 814 326 884 l 326 407 q 441 271 441 407 q 398 68 441 136 q 305 0 356 0 q 136 68 136 0 l 136 814 m 790 -254 q 828 -293 798 -279 q 915 -306 859 -306 q 888 -356 915 -339 q 805 -373 860 -373 q 736 -362 766 -373 q 690 -330 708 -351 q 395 -373 587 -373 q 216 -351 290 -373 q 102 -251 143 -329 q 395 -271 228 -271 q 569 -237 511 -271 q 627 -170 627 -203 q 615 -144 627 -153 q 577 -136 602 -136 q 598 -85 577 -102 q 696 -68 619 -68 q 793 -94 772 -68 q 814 -170 814 -119 q 790 -254 814 -218 z "},"ឯ":{"ha":949,"x_min":34,"x_max":814,"o":"m 136 516 q 102 475 102 516 q 136 441 102 441 l 136 516 m 624 176 l 624 814 q 509 916 624 916 q 326 848 326 916 q 271 780 326 780 q 136 848 136 780 q 153 1012 136 966 q 170 1105 170 1058 q 102 1153 170 1153 q 231 1221 102 1221 q 359 1105 359 1221 q 342 1009 359 1048 q 328 960 332 986 q 509 1017 396 1017 q 814 814 814 1017 l 814 68 q 746 0 814 0 q 633 52 685 0 l 475 210 l 317 52 q 203 0 265 0 q 136 68 136 0 l 136 373 q 34 475 34 373 q 180 610 34 610 q 326 543 326 610 l 326 176 l 418 268 q 475 297 446 297 q 533 268 504 297 l 624 176 z "},"ឰ":{"ha":949,"x_min":136,"x_max":814,"o":"m 644 -101 q 502 -214 587 -168 l 566 -230 q 597 -234 584 -234 q 631 -219 623 -234 q 644 -126 644 -197 l 644 -101 m 326 102 q 373 271 373 102 q 326 339 373 339 l 326 102 m 407 -335 q 425 -282 425 -317 l 425 -249 q 295 -298 351 -286 l 295 -319 q 317 -345 295 -336 q 362 -353 338 -353 q 407 -335 389 -353 m 814 -126 q 752 -284 814 -244 q 629 -324 690 -324 q 565 -317 600 -324 l 513 -304 q 477 -407 513 -373 q 368 -441 441 -441 q 185 -415 235 -441 q 136 -339 136 -390 q 174 -226 136 -241 q 429 -148 328 -191 q 624 0 517 -111 l 624 814 q 590 884 624 884 q 475 814 556 884 q 360 884 394 884 q 326 814 326 884 l 326 407 q 441 271 441 407 q 398 68 441 136 q 305 0 356 0 q 136 68 136 0 l 136 814 q 210 957 136 897 q 325 1017 285 1017 q 475 926 359 1017 q 625 1017 591 1017 q 739 957 665 1017 q 814 814 814 897 l 814 -126 z "},"ឱ":{"ha":949,"x_min":122,"x_max":848,"o":"m 326 695 l 326 658 q 363 678 363 658 q 326 695 363 695 m 326 203 q 343 108 326 134 q 400 81 360 81 q 624 223 473 81 l 624 407 l 814 407 l 814 0 q 678 -115 814 -115 q 543 -47 543 -115 q 624 0 624 -47 l 624 96 q 400 0 499 0 q 203 43 260 0 q 136 203 136 93 l 136 398 q 624 712 624 515 l 624 814 q 475 936 624 936 q 326 814 326 936 l 326 763 q 406 742 381 763 q 431 678 431 720 q 283 576 431 576 q 136 644 136 576 l 136 814 q 475 1017 136 1017 q 814 814 814 1017 l 814 712 q 326 358 814 515 l 326 203 m 209 980 q 122 1075 122 1008 l 122 1126 q 166 1202 122 1161 l 211 1244 q 475 1328 307 1328 q 799 1201 677 1328 q 848 1093 848 1159 q 762 979 848 1027 q 764 996 764 987 q 691 1109 764 1046 q 475 1173 617 1173 q 245 1154 267 1173 q 224 1109 224 1134 q 317 1021 224 1076 l 209 980 z "},"ឲ":{"ha":949,"x_min":136,"x_max":814,"o":"m 624 262 q 621 307 624 296 q 579 323 618 317 q 566 312 573 317 l 465 240 l 393 309 l 513 404 q 618 511 612 481 q 624 589 624 540 q 612 638 624 623 q 580 654 601 654 q 543 638 552 654 q 534 589 534 623 q 576 551 534 551 q 490 493 534 493 q 421 517 449 493 q 394 589 394 541 q 443 701 394 655 q 580 746 492 746 q 764 701 715 746 q 814 589 814 656 q 793 515 814 554 q 711 412 768 467 q 781 369 755 398 q 814 262 814 330 l 814 203 q 475 0 814 0 q 136 203 136 0 l 136 814 q 475 1017 136 1017 q 814 814 814 1017 l 624 814 q 471 936 624 936 q 317 814 317 936 l 317 203 q 471 81 317 81 q 624 203 624 81 l 624 262 z "},"ឳ":{"ha":949,"x_min":122,"x_max":848,"o":"m 326 695 l 326 658 q 363 678 363 658 q 326 695 363 695 m 326 203 q 343 108 326 134 q 400 81 360 81 q 624 223 473 81 l 624 407 l 814 407 l 814 0 q 678 -115 814 -115 q 543 -47 543 -115 q 624 0 624 -47 l 624 96 q 400 0 499 0 q 203 43 260 0 q 136 203 136 93 l 136 398 q 624 712 624 515 l 624 814 q 475 936 624 936 q 326 814 326 936 l 326 763 q 406 742 381 763 q 431 678 431 720 q 283 576 431 576 q 136 644 136 576 l 136 814 q 475 1017 136 1017 q 814 814 814 1017 l 814 712 q 326 358 814 515 l 326 203 m 848 1154 q 762 979 848 1027 q 764 996 764 987 q 691 1109 764 1046 q 475 1173 617 1173 q 245 1154 267 1173 q 224 1109 224 1134 q 317 1028 224 1076 l 209 980 q 122 1075 122 1008 l 122 1126 q 166 1202 122 1161 l 211 1244 q 475 1328 307 1328 q 752 1243 640 1328 l 752 1257 q 692 1392 752 1351 l 661 1415 q 642 1445 642 1428 q 652 1472 642 1457 q 682 1491 665 1491 q 719 1476 699 1491 l 762 1446 q 848 1229 848 1385 l 848 1154 z "},"ា":{"ha":475,"x_min":-249,"x_max":305,"o":"m 305 712 l 305 0 l 170 0 l 170 712 q 127 791 170 766 l 30 850 q -68 882 -21 882 q -204 816 -111 882 l -249 878 q -68 1017 -140 1017 q 88 974 16 1017 l 197 908 q 305 712 305 843 z "},"ិ":{"ha":0,"x_min":-780,"x_max":-170,"o":"m -780 1322 q -576 1492 -780 1492 q -227 1339 -400 1492 q -170 1255 -170 1289 q -237 1221 -170 1221 l -644 1221 q -780 1322 -780 1221 m -644 1322 q -610 1289 -644 1289 l -292 1289 q -440 1342 -380 1327 q -576 1356 -501 1356 q -644 1322 -644 1356 z "},"ី":{"ha":0,"x_min":-780,"x_max":-170,"o":"m -644 1322 q -610 1289 -644 1289 l -292 1289 q -440 1342 -380 1327 q -576 1356 -501 1356 q -644 1322 -644 1356 m -285 1386 l -285 1560 l -170 1560 l -170 1255 q -237 1221 -170 1221 l -644 1221 q -780 1322 -780 1221 q -576 1492 -780 1492 q -285 1386 -429 1492 z "},"ឹ":{"ha":0,"x_min":-780,"x_max":-170,"o":"m -438 1455 l -438 1457 q -397 1534 -431 1508 q -305 1560 -363 1560 q -203 1526 -237 1560 q -170 1424 -170 1492 q -214 1313 -170 1346 l -216 1312 q -170 1255 -170 1273 q -237 1221 -170 1221 l -644 1221 q -780 1322 -780 1221 q -590 1492 -780 1492 q -438 1455 -517 1492 m -359 1411 q -326 1390 -342 1401 q -295 1370 -309 1380 q -251 1424 -251 1375 q -305 1478 -251 1478 q -359 1424 -359 1478 q -359 1411 -359 1420 m -644 1322 q -610 1289 -644 1289 l -292 1289 q -440 1342 -380 1327 q -576 1356 -501 1356 q -644 1322 -644 1356 z "},"ឺ":{"ha":0,"x_min":-780,"x_max":-170,"o":"m -644 1322 q -610 1289 -644 1289 l -292 1289 q -440 1342 -380 1327 q -576 1356 -501 1356 q -644 1322 -644 1356 m -475 1479 l -475 1560 l -359 1560 l -359 1434 q -285 1386 -322 1413 l -285 1560 l -170 1560 l -170 1255 q -237 1221 -170 1221 l -644 1221 q -780 1322 -780 1221 q -576 1492 -780 1492 q -475 1479 -526 1492 z "},"ុ":{"ha":0,"x_min":-339,"x_max":-170,"o":"m -170 -441 l -305 -441 l -305 -181 q -339 -127 -339 -169 q -254 -68 -339 -68 q -170 -127 -170 -68 l -170 -441 z "},"ូ":{"ha":0,"x_min":-577,"x_max":-136,"o":"m -380 -441 q -570 -327 -570 -441 q -557 -253 -570 -294 l -523 -160 q -577 -98 -577 -160 q -462 -37 -577 -37 q -378 -115 -378 -37 q -393 -191 -378 -146 l -420 -271 q -428 -307 -428 -292 q -380 -345 -428 -345 q -272 -206 -315 -345 q -153 -37 -223 -37 q -136 -79 -136 -37 q -161 -253 -136 -133 q -380 -441 -201 -441 z "},"ួ":{"ha":0,"x_min":-669,"x_max":-136,"o":"m -416 -360 q -536 -441 -478 -441 q -669 -358 -669 -441 q -629 -235 -669 -310 l -587 -157 q -644 -95 -644 -157 q -529 -33 -644 -33 q -441 -75 -461 -33 q -434 -108 -434 -90 q -458 -191 -434 -142 l -499 -267 q -525 -340 -525 -317 q -509 -357 -525 -357 q -378 -237 -473 -357 q -339 -357 -363 -357 q -300 -280 -317 -357 q -223 -33 -250 -33 q -136 -94 -136 -33 q -168 -312 -136 -182 q -312 -441 -199 -441 q -416 -360 -389 -441 z "},"ើ":{"ha":0,"x_min":-780,"x_max":-170,"o":"m -644 1322 q -610 1289 -644 1289 l -292 1289 q -440 1342 -380 1327 q -576 1356 -501 1356 q -644 1322 -644 1356 m -285 1386 l -285 1560 l -170 1560 l -170 1255 q -237 1221 -170 1221 l -644 1221 q -780 1322 -780 1221 q -576 1492 -780 1492 q -285 1386 -429 1492 z "},"ឿ":{"ha":461,"x_min":-475,"x_max":326,"o":"m 326 -271 q 0 -441 326 -441 q -326 -271 -326 -441 l -326 -68 l -136 -68 l -136 -271 q 0 -359 -136 -359 q 136 -271 136 -359 l 136 1092 q 7 1289 136 1289 l -339 1289 q -475 1390 -475 1289 q -271 1560 -475 1560 q -170 1547 -220 1560 l -170 1628 l -54 1628 l -54 1501 q 20 1454 -17 1481 l 20 1628 l 136 1628 l 136 1356 q 326 1092 326 1306 l 326 -271 m -339 1390 q -305 1356 -339 1356 l 14 1356 q -135 1410 -75 1395 q -271 1424 -196 1424 q -339 1390 -339 1424 z "},"ៀ":{"ha":461,"x_min":-387,"x_max":326,"o":"m 326 -271 q 0 -441 326 -441 q -326 -271 -326 -441 l -326 -68 l -136 -68 l -136 -271 q 0 -359 -136 -359 q 136 -271 136 -359 l 136 1112 q 7 1309 136 1309 q -109 1266 -68 1309 q -179 1221 -151 1223 l -185 1221 q -306 1241 -278 1221 q -353 1371 -353 1292 q -339 1460 -353 1415 q -326 1554 -326 1506 q -387 1601 -326 1601 q -261 1669 -387 1669 q -136 1554 -136 1669 q -153 1457 -136 1496 q -171 1371 -171 1418 l -171 1341 q 7 1390 -81 1390 q 326 1112 326 1390 l 326 -271 z "},"េ":{"ha":461,"x_min":14,"x_max":427,"o":"m 326 115 q 359 203 359 115 q 326 271 359 271 l 326 115 m 136 653 q 14 747 136 725 q 89 926 27 836 q 186 1017 150 1017 q 264 988 216 1017 l 312 959 q 361 946 333 946 q 393 949 376 946 q 366 855 387 902 q 311 804 345 808 q 304 804 307 804 q 212 840 270 804 q 180 850 195 850 q 126 785 137 850 q 326 658 326 746 l 326 339 q 427 203 427 339 q 392 68 427 136 q 256 0 356 0 q 136 68 136 0 l 136 653 z "},"ែ":{"ha":393,"x_min":14,"x_max":427,"o":"m 326 115 q 359 203 359 115 q 326 271 359 271 l 326 115 m 136 653 q 14 747 136 725 q 89 926 27 836 q 186 1017 150 1017 q 264 988 216 1017 l 312 959 q 361 946 333 946 q 393 949 376 946 q 366 855 387 902 q 311 804 345 808 q 304 804 307 804 q 212 840 270 804 q 180 850 195 850 q 126 785 137 850 q 326 658 326 746 l 326 339 q 427 203 427 339 q 392 68 427 136 q 256 0 356 0 q 136 68 136 0 l 136 653 m 176 1221 q 146 1204 146 1221 q 163 1187 146 1187 q 223 1219 195 1187 q 251 1302 251 1251 q 231 1365 251 1339 q 180 1390 210 1390 q 149 1441 149 1390 q 210 1492 149 1492 q 336 1443 286 1492 q 387 1302 387 1394 q 337 1175 387 1231 q 183 1119 288 1119 q 60 1140 107 1119 q 14 1204 14 1161 q 33 1267 14 1246 q 88 1289 51 1289 q 151 1272 125 1289 q 176 1221 176 1255 z "},"ៃ":{"ha":393,"x_min":14,"x_max":427,"o":"m 326 115 q 359 203 359 115 q 326 271 359 271 l 326 115 m 136 653 q 14 747 136 725 q 89 926 27 836 q 186 1017 150 1017 q 264 988 216 1017 l 312 959 q 361 946 333 946 q 393 949 376 946 q 366 855 387 902 q 311 804 345 808 q 304 804 307 804 q 212 840 270 804 q 180 850 195 850 q 126 785 137 850 q 326 658 326 746 l 326 339 q 427 203 427 339 q 392 68 427 136 q 256 0 356 0 q 136 68 136 0 l 136 653 m 132 1268 q 183 1221 183 1268 q 200 1187 183 1187 q 234 1204 217 1187 q 251 1255 251 1221 q 234 1319 251 1302 q 183 1336 217 1336 q 47 1404 47 1336 q 14 1458 47 1458 q 81 1526 14 1526 q 159 1495 134 1526 q 183 1404 183 1465 l 217 1404 q 349 1370 311 1404 q 387 1255 387 1336 q 349 1153 387 1187 q 217 1119 311 1119 q 47 1214 47 1119 q 132 1268 47 1268 z "},"ោ":{"ha":467,"x_min":-170,"x_max":297,"o":"m -136 850 q -170 922 -170 882 q -144 964 -170 947 q -5 1017 -66 1017 q 114 972 56 1017 l 244 869 q 297 765 297 829 l 297 68 q 233 0 297 0 q 170 68 170 0 l 170 765 l 9 895 q -35 913 -16 913 q -56 906 -46 913 l -136 850 z "},"ៅ":{"ha":467,"x_min":-170,"x_max":349,"o":"m 288 814 q 297 765 297 791 l 297 68 q 233 0 297 0 q 170 68 170 0 l 170 765 l 9 895 q -35 913 -16 913 q -56 906 -46 913 l -136 850 q -170 922 -170 882 q -144 964 -170 947 q -5 1017 -66 1017 q 114 972 56 1017 l 221 888 l 221 1153 q 153 1221 221 1221 q 238 1289 153 1289 q 349 1153 349 1289 l 349 949 q 288 814 349 899 z "},"ំ":{"ha":0,"x_min":-661,"x_max":-288,"o":"m -529 1373 q -515 1322 -529 1339 q -475 1305 -502 1305 q -434 1322 -448 1305 q -420 1373 -420 1339 q -434 1424 -420 1407 q -475 1441 -448 1441 q -515 1424 -502 1441 q -529 1373 -529 1407 m -288 1373 q -334 1259 -288 1297 q -475 1221 -381 1221 q -615 1259 -568 1221 q -661 1373 -661 1297 q -615 1488 -661 1450 q -475 1526 -568 1526 q -334 1488 -381 1526 q -288 1373 -288 1450 z "},"ះ":{"ha":644,"x_min":136,"x_max":509,"o":"m 268 831 q 281 780 268 797 q 322 763 295 763 q 363 780 349 763 q 376 831 376 797 q 363 882 376 865 q 322 899 349 899 q 281 882 295 899 q 268 831 268 865 m 509 831 q 463 716 509 754 q 322 678 416 678 q 182 716 229 678 q 136 831 136 754 q 182 945 136 907 q 322 983 229 983 q 463 945 416 983 q 509 831 509 907 m 268 186 q 281 136 268 153 q 322 119 295 119 q 363 136 349 119 q 376 186 376 153 q 363 237 376 220 q 322 254 349 254 q 281 237 295 254 q 268 186 268 220 m 509 186 q 463 72 509 110 q 322 34 416 34 q 182 72 229 34 q 136 186 136 110 q 182 301 136 263 q 322 339 229 339 q 463 301 416 339 q 509 186 509 263 z "},"ៈ":{"ha":576,"x_min":136,"x_max":441,"o":"m 245 102 q 163 123 190 102 q 136 186 136 144 q 163 250 136 229 q 245 271 190 271 q 327 250 300 271 q 353 186 353 229 q 376 165 353 165 q 441 186 397 165 q 370 123 419 144 q 245 102 321 102 m 245 745 q 163 766 190 745 q 136 829 136 787 q 163 893 136 872 q 245 914 190 914 q 327 892 300 914 q 353 829 353 871 q 376 808 353 808 q 441 829 397 808 q 370 766 419 787 q 245 745 321 745 z "},"៉":{"ha":0,"x_min":-675,"x_max":-275,"o":"m -529 1526 l -529 1295 q -602 1221 -529 1241 q -675 1295 -675 1241 l -675 1526 l -529 1526 m -275 1526 l -275 1295 q -347 1221 -275 1241 q -420 1295 -420 1241 l -420 1526 l -275 1526 z "},"៊":{"ha":0,"x_min":-882,"x_max":-68,"o":"m -878 1069 q -882 1096 -882 1082 q -723 1295 -882 1143 q -463 1204 -581 1295 q -296 1295 -328 1295 q -171 1234 -238 1295 q -99 1194 -129 1194 q -68 1208 -81 1194 q -90 1113 -68 1152 q -165 1074 -113 1074 q -321 1141 -224 1074 l -321 1141 q -501 1055 -369 1141 q -643 1132 -610 1125 q -723 1142 -675 1139 l -770 1092 q -762 1069 -769 1080 l -878 1069 z "},"់":{"ha":0,"x_min":-566,"x_max":-383,"o":"m -383 1560 l -383 1302 q -475 1221 -383 1241 q -566 1302 -566 1241 l -566 1560 l -383 1560 z "},"៌":{"ha":0,"x_min":-742,"x_max":-208,"o":"m -526 1299 q -597 1254 -555 1286 q -664 1221 -638 1221 q -733 1239 -720 1221 q -742 1265 -742 1252 q -699 1337 -742 1306 l -635 1380 q -517 1497 -538 1446 q -496 1577 -496 1548 q -404 1645 -496 1645 q -347 1577 -347 1645 q -370 1488 -348 1527 q -485 1374 -391 1449 q -396 1391 -438 1391 q -321 1387 -341 1391 q -221 1312 -262 1374 q -208 1270 -208 1288 q -233 1230 -208 1244 q -295 1221 -248 1221 q -341 1255 -321 1221 q -417 1312 -371 1305 q -526 1299 -497 1312 z "},"៍":{"ha":0,"x_min":-661,"x_max":-166,"o":"m -526 1340 q -517 1302 -526 1314 q -485 1289 -509 1289 q -471 1301 -471 1289 q -424 1322 -471 1322 q -376 1301 -376 1322 q -406 1241 -376 1261 q -502 1221 -436 1221 q -631 1251 -602 1221 q -661 1339 -661 1280 q -631 1432 -661 1392 q -498 1472 -600 1472 q -380 1432 -412 1472 q -284 1478 -328 1449 q -212 1556 -241 1508 l -205 1558 q -176 1538 -192 1558 q -166 1515 -166 1525 q -174 1499 -166 1506 q -245 1422 -205 1456 q -338 1364 -287 1389 q -385 1356 -362 1356 q -478 1404 -435 1404 q -507 1385 -488 1404 q -526 1340 -526 1365 z "},"៎":{"ha":0,"x_min":-651,"x_max":-298,"o":"m -549 1322 l -651 1322 l -651 1404 l -549 1404 l -549 1505 l -400 1505 l -400 1404 l -298 1404 l -298 1322 l -400 1322 l -400 1221 l -549 1221 l -549 1322 z "},"៏":{"ha":0,"x_min":-739,"x_max":-210,"o":"m -326 1662 q -258 1594 -258 1662 q -326 1526 -258 1526 q -381 1492 -349 1526 l -392 1458 l -461 1458 q -604 1356 -604 1458 q -576 1289 -604 1289 q -475 1381 -549 1289 q -366 1289 -400 1289 q -346 1322 -346 1289 q -380 1356 -346 1356 q -295 1424 -380 1424 q -210 1322 -210 1424 q -363 1221 -210 1221 q -475 1289 -427 1221 q -580 1221 -522 1221 q -739 1356 -739 1221 q -461 1526 -739 1526 q -326 1662 -412 1662 z "},"័":{"ha":0,"x_min":-644,"x_max":-102,"o":"m -495 1458 q -407 1387 -407 1458 q -458 1322 -407 1322 q -509 1356 -502 1322 q -441 1289 -509 1289 q -279 1325 -322 1289 q -237 1433 -237 1361 q -271 1514 -237 1514 q -305 1548 -305 1514 q -271 1582 -305 1582 q -144 1545 -186 1582 q -102 1433 -102 1508 q -178 1274 -102 1326 q -441 1221 -254 1221 q -602 1255 -559 1221 q -644 1356 -644 1289 q -495 1458 -644 1458 z "},"៑":{"ha":0,"x_min":-797,"x_max":-153,"o":"m -153 1221 l -153 1119 l -797 1119 l -797 1221 l -153 1221 z "},"្":{"ha":0,"x_min":-610,"x_max":-339,"o":"m -339 -305 l -441 -305 l -441 -407 l -509 -407 l -509 -305 l -610 -305 l -610 -237 l -509 -237 l -509 -136 l -441 -136 l -441 -237 l -339 -237 l -339 -305 z "},"៓":{"ha":0,"x_min":-644,"x_max":-305,"o":"m -576 1255 q -551 1204 -576 1221 q -475 1187 -526 1187 q -398 1204 -424 1187 q -373 1255 -373 1221 q -398 1305 -373 1289 q -475 1322 -424 1322 q -551 1305 -526 1322 q -576 1255 -576 1289 m -305 1255 q -348 1153 -305 1187 q -475 1119 -390 1119 q -602 1153 -559 1119 q -644 1255 -644 1187 q -602 1356 -644 1322 q -475 1390 -559 1390 q -348 1356 -390 1390 q -305 1255 -305 1322 z "},"។":{"ha":970,"x_min":136,"x_max":834,"o":"m 644 910 l 644 1017 l 834 1017 l 834 139 q 792 30 834 60 q 665 0 749 0 q 562 17 580 0 q 543 68 543 34 q 615 81 585 68 q 644 139 644 94 l 644 794 l 621 781 q 373 678 435 678 q 136 848 136 678 q 353 1017 136 1017 q 420 966 420 1017 q 373 916 420 916 q 326 848 326 916 q 373 780 326 780 q 574 870 406 780 l 644 910 z "},"៕":{"ha":1255,"x_min":136,"x_max":1119,"o":"m 949 1017 l 1119 1017 l 1119 136 q 1043 25 1119 51 q 882 0 966 0 q 932 42 916 17 q 949 102 949 68 l 949 1017 m 644 910 l 644 1017 l 834 1017 l 834 139 q 792 30 834 60 q 665 0 749 0 q 562 17 580 0 q 543 68 543 34 q 615 81 585 68 q 644 139 644 94 l 644 794 l 621 781 q 373 678 435 678 q 136 848 136 678 q 353 1017 136 1017 q 420 966 420 1017 q 373 916 420 916 q 326 848 326 916 q 373 780 326 780 q 574 870 406 780 l 644 910 z "},"៖":{"ha":712,"x_min":136,"x_max":576,"o":"m 576 559 l 576 457 l 136 457 l 136 559 l 576 559 m 268 831 q 281 780 268 797 q 322 763 295 763 q 363 780 349 763 q 376 831 376 797 q 363 882 376 865 q 322 899 349 899 q 281 882 295 899 q 268 831 268 865 m 509 831 q 463 716 509 754 q 322 678 416 678 q 182 716 229 678 q 136 831 136 754 q 182 945 136 907 q 322 983 229 983 q 463 945 416 983 q 509 831 509 907 m 268 186 q 281 136 268 153 q 322 119 295 119 q 363 136 349 119 q 376 186 376 153 q 363 237 376 220 q 322 254 349 254 q 281 237 295 254 q 268 186 268 220 m 509 186 q 463 72 509 110 q 322 34 416 34 q 182 72 229 34 q 136 186 136 110 q 182 301 136 263 q 322 339 229 339 q 463 301 416 339 q 509 186 509 263 z "},"ៗ":{"ha":936,"x_min":136,"x_max":800,"o":"m 324 696 q 172 728 209 696 q 136 820 136 761 q 203 918 157 869 q 320 1017 249 968 l 498 875 l 626 1017 l 800 1017 l 800 237 q 720 59 800 119 q 498 0 639 0 q 287 30 357 0 q 216 119 216 59 q 236 178 216 158 q 297 197 256 197 q 347 134 297 167 q 498 102 397 102 q 578 144 546 102 q 610 237 610 186 l 610 840 l 499 756 l 334 881 l 268 820 q 279 790 268 800 q 324 780 289 780 q 354 789 344 780 q 364 814 364 797 q 394 800 385 814 q 404 755 404 785 q 385 710 404 725 q 324 696 364 696 z "},"៘":{"ha":3364,"x_min":136,"x_max":3228,"o":"m 3038 910 l 3038 1017 l 3228 1017 l 3228 139 q 3186 30 3228 60 q 3059 0 3143 0 q 2955 17 2974 0 q 2936 68 2936 34 q 3009 81 2979 68 q 3038 139 3038 94 l 3038 794 l 3015 781 q 2767 678 2829 678 q 2530 848 2530 678 q 2747 1017 2530 1017 q 2814 966 2814 1017 q 2767 916 2814 916 q 2719 848 2719 916 q 2767 780 2719 780 q 2968 870 2799 780 l 3038 910 m 644 910 l 644 1017 l 834 1017 l 834 139 q 792 30 834 60 q 665 0 749 0 q 562 17 580 0 q 543 68 543 34 q 615 81 585 68 q 644 139 644 94 l 644 794 l 621 781 q 373 678 435 678 q 136 848 136 678 q 353 1017 136 1017 q 420 966 420 1017 q 373 916 420 916 q 326 848 326 916 q 373 780 326 780 q 574 870 406 780 l 644 910 m 1295 102 q 1343 271 1343 102 q 1295 339 1343 339 l 1295 102 m 2258 136 q 1923 0 2190 0 q 1587 136 1655 0 l 1587 854 q 1441 936 1546 936 q 1295 854 1336 936 l 1295 407 q 1411 271 1411 407 q 1385 68 1411 136 q 1275 0 1360 0 q 1105 68 1105 0 l 1105 882 q 1441 1017 1173 1017 q 1777 882 1709 1017 l 1777 163 q 1923 81 1817 81 q 2068 163 2028 81 l 2068 653 q 1946 747 2068 725 q 2021 926 1960 836 q 2119 1017 2083 1017 q 2197 988 2149 1017 l 2245 959 q 2294 946 2266 946 q 2326 949 2309 946 q 2299 855 2319 902 q 2243 804 2278 808 q 2237 804 2240 804 q 2145 840 2203 804 q 2112 850 2127 850 q 2059 785 2070 850 q 2258 658 2258 746 l 2258 136 z "},"៙":{"ha":1051,"x_min":203,"x_max":848,"o":"m 526 0 q 284 119 365 0 q 203 475 203 237 q 284 831 203 712 q 526 949 365 949 q 767 831 686 949 q 848 475 848 712 q 767 119 848 237 q 526 0 686 0 m 526 870 q 345 772 405 870 q 284 475 284 673 q 345 178 284 277 q 526 79 405 79 q 707 178 646 79 q 767 475 767 277 q 707 772 767 673 q 526 870 646 870 m 526 158 q 405 237 445 158 q 365 475 365 317 q 405 712 365 633 q 526 791 445 791 q 646 712 606 791 q 686 475 686 633 q 646 237 686 317 q 526 158 606 158 m 526 712 q 465 653 486 712 q 445 475 445 593 q 465 297 445 356 q 526 237 486 237 q 586 297 566 237 q 606 475 606 356 q 586 653 606 593 q 526 712 566 712 z "},"៚":{"ha":2658,"x_min":170,"x_max":2489,"o":"m 1981 365 q 1970 347 1970 353 q 1971 344 1970 345 q 1979 338 1974 338 q 1988 342 1983 338 q 1988 345 1988 343 q 1981 365 1988 350 m 1080 664 q 1122 753 1122 728 q 1117 767 1122 762 q 1085 783 1101 783 q 1048 760 1066 783 q 1044 744 1044 753 q 1072 676 1044 720 q 1080 664 1076 670 m 1269 298 q 1239 243 1239 260 q 1242 235 1239 238 q 1270 220 1255 220 q 1295 231 1282 220 q 1299 239 1299 233 q 1269 298 1299 257 m 1499 690 q 1527 737 1527 724 q 1525 742 1527 740 q 1503 755 1515 755 q 1482 747 1493 755 q 1479 739 1479 745 q 1499 690 1479 724 m 1653 317 q 1639 298 1639 302 q 1640 296 1639 297 q 1651 291 1645 291 q 1662 294 1656 291 q 1663 297 1663 295 q 1653 317 1663 302 m 1887 664 q 1904 685 1904 681 q 1903 686 1904 686 q 1895 689 1900 689 q 1883 683 1889 689 q 1881 680 1881 682 q 1887 664 1881 674 m 1976 538 q 2005 500 1992 519 q 2064 521 2032 513 q 2245 543 2142 543 l 2424 543 q 2489 492 2489 543 q 2422 441 2489 441 l 2245 441 q 2054 418 2099 441 q 2074 367 2068 391 q 2079 331 2079 347 q 2047 264 2079 289 q 1973 235 2008 235 q 1963 236 1968 235 q 1888 284 1923 241 q 1862 351 1862 317 q 1864 371 1862 361 q 1924 452 1874 412 q 1902 484 1914 467 q 1880 513 1890 498 q 1811 454 1849 484 q 1721 379 1758 410 q 1742 331 1734 353 q 1753 275 1753 300 q 1725 215 1753 237 q 1650 186 1685 186 q 1638 186 1644 186 q 1561 238 1596 193 q 1546 285 1546 258 q 1569 358 1546 317 q 1597 398 1581 377 q 1539 475 1573 431 l 1492 533 q 1416 452 1459 495 q 1329 366 1365 404 q 1374 285 1358 321 q 1390 219 1390 248 q 1358 155 1390 178 q 1265 117 1310 117 q 1257 118 1261 117 q 1166 172 1208 122 q 1145 231 1145 197 q 1166 311 1145 266 q 1206 376 1181 341 q 1139 449 1177 408 q 1089 503 1112 477 q 981 362 1044 438 q 697 91 829 181 q 451 0 564 0 q 240 127 311 0 q 170 509 170 254 q 250 890 170 763 q 492 1017 331 1017 q 734 950 653 1017 q 814 749 814 883 q 755 528 814 611 q 579 414 696 444 q 553 410 565 410 q 509 446 519 410 q 506 464 506 456 q 553 511 506 498 q 672 590 632 532 q 712 744 712 648 q 657 872 712 829 q 492 916 602 916 q 327 814 382 916 q 272 513 272 713 l 272 509 q 317 203 272 305 q 452 102 361 102 q 651 180 541 102 q 892 416 761 259 q 1025 585 973 514 q 971 682 989 637 q 954 759 954 724 q 983 836 954 804 q 1083 895 1033 894 l 1084 895 q 1183 838 1133 895 q 1208 766 1208 810 q 1182 663 1208 722 q 1142 585 1166 627 q 1206 514 1171 552 q 1265 449 1238 480 q 1340 528 1298 486 q 1434 619 1395 579 q 1397 704 1412 659 q 1386 762 1386 736 q 1419 833 1386 808 q 1506 867 1466 867 q 1516 867 1511 867 q 1600 812 1562 861 q 1618 758 1618 789 q 1593 673 1618 722 q 1555 611 1578 644 q 1610 541 1579 580 q 1664 470 1640 504 q 1735 534 1695 500 q 1820 604 1785 574 q 1796 661 1804 635 q 1790 701 1790 682 q 1822 764 1790 741 q 1895 793 1860 793 q 1907 792 1901 793 q 1984 741 1948 787 q 2001 694 2001 721 q 1977 624 2001 663 q 1944 579 1964 603 q 1976 538 1959 561 z "},"៛":{"ha":461,"x_min":14,"x_max":407,"o":"m 136 271 q 81 203 81 271 q 136 115 81 115 l 136 271 m 326 468 l 326 68 q 205 0 326 0 q 49 68 85 0 q 14 203 14 136 q 136 339 14 339 l 136 468 l 31 468 l 31 549 l 136 549 l 136 653 q 14 747 136 725 q 89 926 27 836 q 186 1017 150 1017 q 264 988 216 1017 l 312 959 q 361 946 333 946 q 393 949 376 946 q 366 855 387 902 q 311 804 345 808 q 304 804 307 804 q 212 840 270 804 q 180 850 195 850 q 126 785 137 850 q 326 658 326 746 l 326 549 l 407 549 l 407 468 l 326 468 z "},"០":{"ha":983,"x_min":136,"x_max":848,"o":"m 216 127 q 176 191 216 127 q 136 407 136 254 l 136 610 q 216 890 136 763 q 492 1017 297 1017 q 767 890 687 1017 q 848 610 848 763 l 848 407 q 767 127 848 254 q 492 0 687 0 q 216 127 297 0 m 360 817 q 343 765 360 817 q 326 610 326 714 l 326 407 q 360 200 326 303 q 492 98 395 98 q 624 200 589 98 q 658 407 658 303 l 658 610 q 624 817 658 714 q 492 920 589 920 q 360 817 395 920 z "},"១":{"ha":983,"x_min":136,"x_max":848,"o":"m 848 610 q 727 158 848 315 q 373 0 606 0 q 305 49 305 0 q 373 98 305 98 q 590 228 522 98 q 658 610 658 357 q 603 858 658 795 q 465 920 549 920 q 360 861 395 920 q 326 699 326 802 q 344 571 326 614 q 408 529 363 529 q 462 576 443 529 q 407 637 407 586 q 492 726 407 726 q 576 637 576 726 q 530 492 576 545 q 408 438 482 438 q 204 512 272 438 q 136 699 136 585 q 223 924 136 831 q 465 1017 311 1017 q 747 921 646 1017 q 848 610 848 824 z "},"២":{"ha":1160,"x_min":34,"x_max":1024,"o":"m 604 593 l 604 543 q 636 576 636 543 q 627 589 636 585 q 604 593 619 593 m 475 0 q 231 78 326 0 q 136 271 136 156 l 136 983 q 34 1062 136 1062 q 122 1153 34 1153 q 326 983 326 1153 l 326 271 q 374 141 326 184 q 475 98 423 98 l 651 98 q 768 141 703 98 q 834 271 834 184 l 834 814 q 814 857 834 857 q 720 780 795 857 q 625 857 646 857 q 604 814 604 857 l 604 661 q 679 640 654 661 q 704 576 704 618 q 604 475 704 475 q 414 543 414 475 l 414 814 q 488 957 414 897 q 582 1017 562 1017 q 720 899 602 1017 q 823 1017 803 1017 q 933 957 843 1017 q 1024 814 1024 897 l 1024 271 q 929 78 1024 156 q 651 0 834 0 l 475 0 z "},"៣":{"ha":1160,"x_min":136,"x_max":1024,"o":"m 488 780 q 407 926 488 926 q 326 780 326 926 l 326 186 q 374 165 355 186 q 392 102 392 144 q 264 0 392 0 q 136 68 136 0 l 136 780 q 407 1017 136 1017 q 587 958 524 1017 q 756 1017 651 1017 q 1024 780 1024 1017 l 1024 68 q 929 0 1024 0 q 834 68 834 0 l 834 780 q 756 926 834 926 q 678 780 678 926 l 678 68 q 583 0 678 0 q 488 68 488 0 l 488 780 z "},"៤":{"ha":983,"x_min":136,"x_max":848,"o":"m 766 475 q 773 498 773 481 q 746 533 773 519 l 746 467 q 766 475 760 467 m 136 543 q 383 850 136 776 l 575 912 q 658 1038 658 945 q 598 1085 658 1085 q 723 1153 598 1153 q 848 1038 848 1153 q 616 822 848 895 l 444 758 q 326 543 326 704 l 326 203 q 364 131 326 164 q 475 98 403 98 l 720 98 q 556 305 556 252 l 556 475 q 709 610 556 610 q 790 594 760 610 q 834 547 821 577 q 848 478 848 517 q 824 407 848 441 q 746 373 800 373 l 746 305 q 797 161 746 237 l 848 85 l 848 0 l 475 0 q 220 68 305 0 q 136 203 136 136 l 136 543 z "},"៥":{"ha":983,"x_min":136,"x_max":916,"o":"m 422 822 q 445 887 445 845 q 406 926 445 926 q 366 867 366 926 q 422 822 366 837 m 766 407 q 773 431 773 414 q 746 465 773 452 l 746 399 q 766 407 760 399 m 519 805 q 561 802 542 802 q 658 882 658 802 l 658 1038 q 787 1153 658 1153 q 916 1085 916 1153 q 848 1038 848 1085 l 848 882 q 695 678 848 678 l 433 722 q 387 695 412 709 q 326 481 326 648 l 326 203 q 364 131 326 164 q 475 98 403 98 l 720 98 q 556 271 556 218 l 556 407 q 709 543 556 543 q 790 526 760 543 q 834 479 821 509 q 848 410 848 449 q 824 339 848 373 q 746 305 800 305 l 746 271 q 848 85 746 203 l 848 0 l 475 0 q 220 68 305 0 q 136 203 136 136 l 136 481 q 316 758 136 671 q 248 867 248 795 q 406 1017 248 1017 q 570 887 570 1017 q 519 805 570 835 z "},"៦":{"ha":983,"x_min":34,"x_max":848,"o":"m 326 926 q 496 1017 385 1017 q 757 910 667 1017 q 848 543 848 804 l 848 407 q 757 107 848 214 q 492 0 667 0 q 216 96 297 0 q 136 319 136 193 q 197 482 136 422 q 401 543 245 543 q 533 503 489 543 q 576 370 576 463 q 509 302 576 302 q 441 370 441 302 q 462 425 441 408 q 401 452 443 452 q 326 319 326 452 q 360 160 326 222 q 492 98 395 98 q 613 170 569 98 q 658 407 658 242 l 658 543 q 613 841 658 775 q 496 906 569 906 q 326 746 374 906 q 227 678 326 678 q 136 746 136 678 l 136 1017 q 34 1096 136 1096 q 180 1187 34 1187 q 326 1017 326 1187 l 326 926 z "},"៧":{"ha":1241,"x_min":136,"x_max":1105,"o":"m 326 102 q 373 271 373 102 q 326 339 373 339 l 326 102 m 814 136 q 865 98 814 98 q 916 136 916 98 l 916 983 q 814 1062 916 1062 q 960 1153 814 1153 q 1105 983 1105 1153 l 1105 136 q 865 0 1105 0 q 624 136 624 0 l 624 814 q 590 884 624 884 q 475 814 556 884 q 360 884 394 884 q 326 814 326 884 l 326 407 q 441 271 441 407 q 398 68 441 136 q 305 0 356 0 q 136 68 136 0 l 136 814 q 210 957 136 897 q 325 1017 285 1017 q 475 926 359 1017 q 625 1017 591 1017 q 739 957 665 1017 q 814 814 814 897 l 814 136 z "},"៨":{"ha":983,"x_min":136,"x_max":949,"o":"m 658 1017 q 804 1187 658 1187 q 949 1096 949 1187 q 848 1017 848 1096 l 848 746 q 757 678 848 678 q 658 746 658 678 q 488 906 609 906 q 370 841 414 906 q 326 543 326 775 l 326 204 q 372 134 326 134 q 492 204 407 134 q 613 134 577 134 q 658 204 658 134 l 658 353 q 582 486 658 486 q 522 458 541 486 q 543 404 543 442 q 475 336 543 336 q 407 404 407 336 q 451 537 407 497 q 582 576 494 576 q 786 516 739 576 q 848 353 848 456 l 848 204 q 770 61 848 121 q 650 0 692 0 q 492 92 614 0 q 334 0 370 0 q 214 61 292 0 q 136 204 136 121 l 136 543 q 226 910 136 804 q 488 1017 317 1017 q 658 926 598 1017 l 658 1017 z "},"៩":{"ha":983,"x_min":136,"x_max":848,"o":"m 681 161 l 733 197 q 710 213 723 213 q 700 211 705 213 q 680 196 684 205 q 678 184 678 192 q 681 161 678 175 m 658 979 l 658 1017 q 585 1096 658 1096 q 707 1187 585 1187 q 848 1017 848 1187 l 848 814 q 784 746 848 746 q 720 780 735 746 q 562 899 623 899 q 482 874 503 899 q 461 783 461 848 q 488 676 461 712 q 563 640 515 640 q 810 547 694 640 q 848 453 848 514 q 832 425 848 425 q 770 467 812 425 q 563 543 692 543 q 386 483 447 543 q 326 305 326 424 q 365 148 326 199 q 475 98 404 98 q 620 127 547 98 q 597 199 597 170 q 603 225 597 214 q 654 273 619 260 q 717 286 686 286 l 723 286 q 785 262 755 285 q 814 169 814 239 q 715 49 814 98 q 475 0 615 0 q 227 71 307 0 q 136 305 136 150 q 186 496 136 420 q 338 608 237 572 q 271 780 271 667 q 341 966 271 907 q 528 1017 401 1017 q 658 979 595 1017 z "},"​":{"ha":0,"x_min":0,"x_max":0,"o":""},"◌":{"ha":882,"x_min":203,"x_max":746,"o":"m 647 170 q 680 141 680 170 q 649 114 680 114 l 647 114 q 614 142 614 115 q 647 170 614 170 m 693 275 q 727 247 727 275 q 693 219 727 219 q 660 247 660 220 q 693 275 660 275 m 566 77 q 600 49 600 77 q 566 21 600 21 q 533 50 533 22 q 566 77 533 77 m 418 56 q 452 28 452 56 q 420 1 452 1 l 418 1 q 385 28 385 1 q 418 56 385 56 m 320 140 q 354 111 354 140 q 322 84 354 84 l 320 84 q 287 112 287 85 q 320 140 287 140 m 265 244 q 299 216 299 244 q 267 189 299 189 l 265 189 q 232 216 232 189 q 265 244 232 244 m 239 353 q 273 325 273 353 q 241 298 273 298 l 239 298 q 206 326 206 298 q 239 353 206 353 m 237 463 q 271 435 271 463 q 239 408 271 408 l 237 408 q 203 435 203 408 q 237 463 203 463 m 253 573 q 287 545 287 573 q 255 517 287 517 l 253 517 q 220 545 220 518 q 253 573 220 573 m 296 680 q 329 652 329 680 q 296 624 329 624 q 262 652 262 625 q 296 680 262 680 m 374 777 q 407 748 407 777 q 376 721 407 721 l 374 721 q 340 749 340 722 q 374 777 340 777 m 500 812 q 534 783 534 812 q 503 756 534 756 l 500 756 q 467 784 467 757 q 500 812 467 812 m 611 741 q 645 713 645 741 q 613 686 645 686 l 611 686 q 578 713 578 686 q 611 741 578 741 m 678 628 q 712 600 712 628 q 680 572 712 572 l 678 572 q 645 600 645 573 q 678 628 645 628 m 707 519 q 741 491 741 519 q 707 463 741 463 q 673 492 673 464 q 707 519 673 519 m 712 393 q 746 364 746 393 q 714 337 746 337 l 712 337 q 679 365 679 338 q 712 393 679 393 z "}}}
